<svg xmlns="http://www.w3.org/2000/svg" viewBox="0 0 106.77 55.42"><defs><style>.cls-1{fill:none;stroke:#000;stroke-miterlimit:10;stroke-width:3px;}</style></defs><g id="レイヤー_2" data-name="レイヤー 2"><g id="レイヤー_1-2" data-name="レイヤー 1"><path class="cls-1" d="M39.21,39.75a14.18,14.18,0,1,0,17-13.89V39.75H50.55V25.86A14.17,14.17,0,0,0,39.21,39.75Z"/><path d="M0,11.49A8.64,8.64,0,0,0,.12,9.87v-8A10.35,10.35,0,0,0,0,.18c.54,0,.92,0,1.57,0H4.62C6.84.22,8.1,1.38,8.1,3.42S6.79,6.79,4.56,6.79H1.08V9.87a8.37,8.37,0,0,0,.12,1.62ZM4.54,5.94A2.29,2.29,0,0,0,7.12,3.46c0-1.56-.9-2.38-2.58-2.38H1.08V5.94Z"/><path d="M21,11.49A10.76,10.76,0,0,0,20.55,10l-.81-2H14.37l-.81,2a8,8,0,0,0-.48,1.52H11.76a10,10,0,0,0,.81-1.71L15.94,1.6A7.86,7.86,0,0,0,16.42.22h1.23a7.14,7.14,0,0,0,.51,1.38l3.38,8.18a11.36,11.36,0,0,0,.81,1.71ZM17.4,2c0-.13-.06-.15-.35-1a10.6,10.6,0,0,1-.36,1l-2,5.09h4.71Z"/><path d="M33.79,6.79a8.74,8.74,0,0,0-1.56.09v-1A8.77,8.77,0,0,0,33.82,6h.35c.66,0,1.06,0,1.54,0a11.79,11.79,0,0,0-.1,1.63V8.86a8.93,8.93,0,0,0,.1,1.59,7,7,0,0,1-1.9.9,8.41,8.41,0,0,1-2.3.32,4.93,4.93,0,0,1-3.18-1,6,6,0,0,1-2-4.83c0-3.58,2-5.86,5.14-5.86a4.47,4.47,0,0,1,3.11,1.06,4.38,4.38,0,0,1,1.09,1.7l-.93.34A3.18,3.18,0,0,0,31.48.85a3.73,3.73,0,0,0-2.77,1.07,5.56,5.56,0,0,0-1.35,4,5,5,0,0,0,2,4.42,4.37,4.37,0,0,0,2.22.56,5.47,5.47,0,0,0,3.13-.9V6.79Z"/><path d="M48.43,11.59a9.5,9.5,0,0,0-1.6-.1H42.49c-.67,0-1,0-1.57,0A9.87,9.87,0,0,0,41,9.81v-8A10.43,10.43,0,0,0,40.92.18c.54,0,.9,0,1.57,0h4.2a11.25,11.25,0,0,0,1.62-.1V1.18a10.18,10.18,0,0,0-1.62-.1H42V5.13h4A10.57,10.57,0,0,0,47.64,5V6.09A9.06,9.06,0,0,0,46,6H42v4.65h4.83a11.25,11.25,0,0,0,1.6-.1Z"/><path d="M75.43,9.87a8.57,8.57,0,0,0,.12,1.62H74.37a8.3,8.3,0,0,0,.12-1.62V1.08H72.06a10.37,10.37,0,0,0-1.64.1V.12a10,10,0,0,0,1.64.1h5.8a9.94,9.94,0,0,0,1.65-.1V1.18a10.26,10.26,0,0,0-1.65-.1H75.43Z"/><path d="M93.67,5.86c0,3.57-2,5.84-5.07,5.84s-5.07-2.27-5.07-5.84a6.19,6.19,0,0,1,1.61-4.5A4.81,4.81,0,0,1,88.6,0C91.71,0,93.67,2.29,93.67,5.86ZM91.32,9.78a5.52,5.52,0,0,0,1.36-3.93A5.32,5.32,0,0,0,91.33,2,3.76,3.76,0,0,0,88.62.87c-2.48,0-4.1,2-4.1,5s1.65,5,4.11,5A3.74,3.74,0,0,0,91.32,9.78Z"/><path d="M98.67,11.49a8.64,8.64,0,0,0,.12-1.62v-8A10.35,10.35,0,0,0,98.67.18c.54,0,.91,0,1.57,0h3.05c2.22,0,3.48,1.16,3.48,3.2s-1.31,3.37-3.54,3.37H99.75V9.87a8.37,8.37,0,0,0,.12,1.62Zm4.54-5.55a2.29,2.29,0,0,0,2.58-2.48c0-1.56-.9-2.38-2.58-2.38H99.75V5.94Z"/></g></g></svg>