<svg xmlns="http://www.w3.org/2000/svg" viewBox="0 0 294.32 180.76"><defs><style>.cls-1,.cls-2{stroke:#000;stroke-miterlimit:10;stroke-width:3px;}.cls-2{fill:none;}</style></defs><g id="レイヤー_2" data-name="レイヤー 2"><g id="レイヤー_1-2" data-name="レイヤー 1"><polygon points="145.5 136.74 145.5 85.81 138.42 85.81 138.42 170.85 157.31 170.85 157.31 85.81 150.23 85.81 150.23 136.74 145.5 136.74"/><path class="cls-1" d="M166.76,70.19v93.7c-6.15,4.51-12.71,7-19.54,7a32.23,32.23,0,0,1-18.25-6V70.19H145.5V65.87h-26V173.2a65,65,0,0,0,56.69-.91V65.87h-26v4.32Z"/><path class="cls-2" d="M129,164.8a32.23,32.23,0,0,0,18.25,6c6.83,0,13.39-2.45,19.54-7V70.19H150.23V85.81H145.5V70.19H129Z"/><path d="M35.24,44.4l-4.8-12.3H13.74L8.94,44.4H2.21L18.9,2.3h6.44L42,44.4ZM28.17,26.2,22.12,10.76,16.07,26.2Z"/><path d="M24.32,3.8l15.5,39.1H36.27l-4.8-12.3H12.72L7.92,42.9H4.42L19.92,3.8h4.4M13.87,27.7h16.5l-8.25-21-8.25,21M26.36.8H17.88l-.75,1.89L1.63,41.8,0,45.9H10L10.71,44,14.77,33.6H29.42l4,10.39.75,1.91h10l-1.62-4.1L27.11,2.69,26.36.8Zm-8.1,23.9,3.86-9.83L26,24.7Z"/><path d="M68.52,44.4V2.3H81.77c3.58,0,14.5,0,14.5,11a10.37,10.37,0,0,1-4.22,8.87c2.59,1.41,5.62,4.18,5.62,10,0,8.13-5.25,12.25-15.6,12.25Zm13.2-5.95c4.88,0,9.65-.48,9.65-6.2,0-6-4.89-6.8-9.15-6.8H74.77v13ZM82,19.6c5.64,0,8-1.76,8-5.9,0-5.07-3.43-5.45-8.65-5.45h-6.6V19.6Z"/><path d="M81.77,3.8c3.65,0,13,0,13,9.5,0,6-3.8,8-6,9.1,2.3.8,7.4,2.65,7.4,9.75,0,10.75-10.55,10.75-14.1,10.75H70V3.8H81.77m-8.5,17.3H82c2.8,0,9.55-.2,9.55-7.4,0-6.95-5.85-6.95-10.15-6.95h-8.1V21.1m0,18.85h8.45c3.75,0,11.15,0,11.15-7.7,0-8.2-7.75-8.3-10.65-8.3h-9V40M81.77.8H67V45.9h15a24.17,24.17,0,0,0,9.58-1.59c3.43-1.5,7.52-4.82,7.52-12.16,0-5.26-2.27-8.34-4.66-10.16a12,12,0,0,0,3.26-8.69c0-6.71-3.79-9.72-7-11.07a23.17,23.17,0,0,0-9-1.43Zm-5.5,9h5.1c5.88,0,7.15.7,7.15,3.95,0,2.72-1.1,4.4-6.55,4.4h-5.7V9.75Zm0,17.2h6c6.35,0,7.65,2.12,7.65,5.3,0,3.56-2,4.7-8.15,4.7H76.27V27Z"/><path d="M146.42,45.2a21.34,21.34,0,0,1-21.8-21.85A21.34,21.34,0,0,1,146.42,1.5c12.4,0,21.75,9.39,21.75,21.85S158.82,45.2,146.42,45.2Zm0-37.75c-8.87,0-15.55,6.84-15.55,15.9s6.68,15.9,15.55,15.9a15.54,15.54,0,0,0,15.5-15.9A15.54,15.54,0,0,0,146.42,7.45Z"/><path d="M146.42,3c11.45,0,20.25,8.55,20.25,20.35S157.92,43.7,146.42,43.7s-20.3-8.45-20.3-20.35S135,3,146.42,3m0,37.75c9.7,0,17-7.7,17-17.4S156.07,6,146.42,6s-17,7.6-17,17.4,7.4,17.4,17,17.4m0-40.75c-13.29,0-23.3,10-23.3,23.35s10,23.35,23.3,23.35,23.25-10,23.25-23.35S159.67,0,146.42,0Zm0,37.75c-8,0-14-6.19-14-14.4s6-14.4,14-14.4a14.06,14.06,0,0,1,14,14.4c0,8.21-6,14.4-14,14.4Z"/><path d="M214.42,45.2c-17.7,0-17.7-13.91-17.7-19.15V2.3H203V25.9c0,6.76.88,13.35,11.45,13.35s11.5-6.59,11.5-13.35V2.3h6.25V26C232.17,31.25,232.17,45.2,214.42,45.2Z"/><path d="M230.67,3.8V26c0,5.85-.35,17.7-16.25,17.7s-16.2-11.85-16.2-17.65V3.8h3.25V25.9c0,6,.4,14.85,12.95,14.85s13-9,13-14.85V3.8h3.25m3-3h-9.25V25.9c0,6.72-.74,11.85-10,11.85s-9.95-5.13-9.95-11.85V.8h-9.25V26.05c0,5.11,0,20.65,19.2,20.65S233.67,31.12,233.67,26V.8Z"/><polygon points="272.87 44.4 272.87 8.25 259.21 8.25 259.21 2.3 292.82 2.3 292.82 8.25 279.17 8.25 279.17 44.4 272.87 44.4"/><path d="M291.32,3.8v3H277.67V42.9h-3.3V6.75H260.71V3.8h30.61m3-3H257.71v9h13.66V45.9h9.3V9.75h13.65V.8Z"/></g></g></svg>