<svg xmlns="http://www.w3.org/2000/svg" viewBox="0 0 597.16 15.01"><g id="レイヤー_2" data-name="レイヤー 2"><g id="レイヤー_1-2" data-name="レイヤー 1"><path d="M7.44,7.3a8.57,8.57,0,0,0-1.53.09V5.74a11.15,11.15,0,0,0,1.72.09h.65A12.26,12.26,0,0,0,10,5.76a12.06,12.06,0,0,0-.1,1.81v1.5A11.4,11.4,0,0,0,10,10.9a9.05,9.05,0,0,1-2.25,1,9.34,9.34,0,0,1-2.17.27,5.15,5.15,0,0,1-3.94-1.46A6.64,6.64,0,0,1,0,6.07C0,3.55,1,1.62,2.76.63A5.39,5.39,0,0,1,5.52,0,4.78,4.78,0,0,1,8.88,1.21,4.47,4.47,0,0,1,10,3l-1.71.48a2.68,2.68,0,0,0-2.94-2c-2.22,0-3.6,1.74-3.6,4.56A5.38,5.38,0,0,0,2.87,9.67a3.37,3.37,0,0,0,2.67,1.07A4.88,4.88,0,0,0,8.28,10V7.3Z"/><path d="M22.6,12a12.2,12.2,0,0,0-.82-2.48C21,7.48,20.4,6.9,19.23,6.9H16.77v3.24A10.63,10.63,0,0,0,16.89,12H15a10.8,10.8,0,0,0,.12-1.85V2.07A12.24,12.24,0,0,0,15,.22c.56,0,1,.05,1.8.05h3.48A3.65,3.65,0,0,1,23,1.14a2.85,2.85,0,0,1,.83,2.16A2.93,2.93,0,0,1,23,5.52a3.12,3.12,0,0,1-1.64.82c.65.2,1,.59,1.54,1.65.31.63.68,1.41,1.17,2.55.17.39.49,1.08.69,1.46ZM20,5.46a2,2,0,0,0,1.78-.9,2.07,2.07,0,0,0,.28-1.11,1.72,1.72,0,0,0-.45-1.26,2,2,0,0,0-1.54-.5H16.77V5.46Z"/><path d="M37.71,12a11,11,0,0,0-.44-1.56L36.6,8.68h-5l-.68,1.76A7,7,0,0,0,30.5,12H28.39a11.84,11.84,0,0,0,.8-1.76l3.33-8.5A10.18,10.18,0,0,0,33,.27h2.16a9,9,0,0,0,.51,1.47L39,10.24A17.43,17.43,0,0,0,39.79,12ZM34.39,2.59c-.06-.15-.06-.15-.3-.9-.25.78-.25.78-.3.9L32.08,7.24h4Z"/><path d="M44.07,12a11.15,11.15,0,0,0,.12-1.83V2.07A13,13,0,0,0,44.07.22c.57,0,1,.05,1.8.05H49c2.54,0,3.92,1.24,3.92,3.49s-1.46,3.69-4,3.69H45.84v2.69A11,11,0,0,0,46,12ZM48.9,6a2,2,0,0,0,2.28-2.2c0-1.38-.78-2.1-2.28-2.1H45.84V6Z"/><path d="M67.33.27a10.38,10.38,0,0,0-.12,1.81v8.09A10.92,10.92,0,0,0,67.33,12h-1.9a10.48,10.48,0,0,0,.12-1.83V6.6H59.21v3.57A9.64,9.64,0,0,0,59.33,12h-1.9a10.33,10.33,0,0,0,.12-1.83V2.1A10.55,10.55,0,0,0,57.43.27h1.9a9.92,9.92,0,0,0-.12,1.81v3h6.34v-3A10.26,10.26,0,0,0,65.43.27Z"/><path d="M74.44.27a10.48,10.48,0,0,0-.12,1.83v8.07A10.4,10.4,0,0,0,74.44,12H72.52a10.55,10.55,0,0,0,.12-1.83V2.1A10.33,10.33,0,0,0,72.52.27Z"/><path d="M87.67,3.82A3.09,3.09,0,0,0,87,2.5a3,3,0,0,0-2.35-1C82.39,1.51,81,3.25,81,6.1s1.43,4.64,3.66,4.64a3,3,0,0,0,2.55-1.17,3.07,3.07,0,0,0,.56-1.43l1.78.35a5.23,5.23,0,0,1-.93,2,4.94,4.94,0,0,1-4,1.68,5.06,5.06,0,0,1-3.72-1.39,6.7,6.7,0,0,1-1.64-4.67A6.56,6.56,0,0,1,81.1,1.33,4.89,4.89,0,0,1,84.64,0,4.81,4.81,0,0,1,88.15,1.3,4.39,4.39,0,0,1,89.4,3.39Z"/><path d="M112.42,2.08A12,12,0,0,0,112.3.22c.54,0,.94.05,1.8.05h2.66a5.34,5.34,0,0,1,3.93,1.32A6,6,0,0,1,122.28,6a6.27,6.27,0,0,1-1.7,4.65A5.16,5.16,0,0,1,116.76,12H114.1c-.84,0-1.18,0-1.8,0a11.28,11.28,0,0,0,.12-1.9Zm4.25,8.43a3.43,3.43,0,0,0,2.71-1,4.88,4.88,0,0,0,1.17-3.46,4.64,4.64,0,0,0-1.09-3.36,3.52,3.52,0,0,0-2.76-1h-2.61v8.76Z"/><path d="M135.3,12.1a12.26,12.26,0,0,0-1.83-.1h-4.58c-.84,0-1.18,0-1.8,0a11.43,11.43,0,0,0,.12-1.9V2.07a12.24,12.24,0,0,0-.12-1.85c.54,0,1,.05,1.8.05h4.43a13.28,13.28,0,0,0,1.83-.1V1.84a13,13,0,0,0-1.83-.1h-4.44v3.4h3.76a14.63,14.63,0,0,0,1.85-.1V6.72a11.33,11.33,0,0,0-1.85-.11h-3.77v3.9h4.6a13.58,13.58,0,0,0,1.83-.1Z"/><path d="M141.57,8.41a2.26,2.26,0,0,0,.43,1.4,2.86,2.86,0,0,0,2.33.94c1.6,0,2.58-.75,2.58-2a1.59,1.59,0,0,0-.8-1.47,8.92,8.92,0,0,0-2.55-.73,6.05,6.05,0,0,1-2.17-.83,2.75,2.75,0,0,1-1.26-2.4c0-2,1.6-3.31,4.09-3.31a4.24,4.24,0,0,1,3.57,1.47,3.72,3.72,0,0,1,.69,1.68l-1.78.21a2,2,0,0,0-.48-1.13,2.52,2.52,0,0,0-2-.78c-1.41,0-2.37.74-2.37,1.82A1.52,1.52,0,0,0,143,4.78a9.57,9.57,0,0,0,2.13.54,5.81,5.81,0,0,1,2.41.95,2.8,2.8,0,0,1,1.14,2.41c0,2.28-1.54,3.54-4.3,3.54a4.63,4.63,0,0,1-3.78-1.41,4,4,0,0,1-.83-2.2Z"/><path d="M155.47.27a10.48,10.48,0,0,0-.12,1.83v8.07a10.4,10.4,0,0,0,.12,1.83h-1.92a10.55,10.55,0,0,0,.12-1.83V2.1a10.33,10.33,0,0,0-.12-1.83Z"/><path d="M168.88,12.1a12.17,12.17,0,0,0-1.83-.1h-4.57c-.84,0-1.19,0-1.8,0a11.43,11.43,0,0,0,.12-1.9V2.07a12.24,12.24,0,0,0-.12-1.85c.54,0,1,.05,1.8.05h4.42a13.19,13.19,0,0,0,1.83-.1V1.84a12.9,12.9,0,0,0-1.83-.1h-4.44v3.4h3.77a14.47,14.47,0,0,0,1.84-.1V6.72a11.2,11.2,0,0,0-1.84-.11h-3.78v3.9h4.6a13.48,13.48,0,0,0,1.83-.1Z"/><path d="M180.76,8c.29.45.75,1.2,1.08,1.78-.06-.79-.09-1.48-.09-2V2.19a11.54,11.54,0,0,0-.12-1.92h1.88a11.37,11.37,0,0,0-.12,1.93v8a10.5,10.5,0,0,0,.12,1.85h-2.09a13.7,13.7,0,0,0-.88-1.52l-4.26-6.4c-.23-.36-.6-1-.93-1.64.06.65.09,1.41.09,1.95V9.93a12.45,12.45,0,0,0,.12,2.07H173.7a14.78,14.78,0,0,0,.12-2.07V2.1A11.15,11.15,0,0,0,173.7.27h2a8.25,8.25,0,0,0,.86,1.5Z"/><path d="M207.78,11.07a4.09,4.09,0,0,1-.95-1.46,10,10,0,0,1-.58-3.46A9,9,0,0,1,207.13,2a4.38,4.38,0,0,1,6.65-.84,3.89,3.89,0,0,1,.94,1.45,10.09,10.09,0,0,1,.59,3.48,8,8,0,0,1-1.08,4.4,4.42,4.42,0,0,1-6.45.54ZM209,2.25a2.86,2.86,0,0,0-.65,1.12,9.26,9.26,0,0,0-.4,2.81,7.68,7.68,0,0,0,.67,3.37,2.53,2.53,0,0,0,3.87.56,2.84,2.84,0,0,0,.69-1.22,9.18,9.18,0,0,0,.41-2.77A8.27,8.27,0,0,0,213,2.83a2.3,2.3,0,0,0-2.22-1.35A2.12,2.12,0,0,0,209,2.25Z"/><path d="M221.31.18a7.47,7.47,0,0,0,1.39.09h1.2a9.76,9.76,0,0,0,1.41-.08,23.69,23.69,0,0,0-.12,2.49v7.46a11.54,11.54,0,0,0,.12,1.86h-1.93a11.38,11.38,0,0,0,.12-1.86V1.71h-.75a11.6,11.6,0,0,0-1.44.09Z"/><path d="M257.55.27l-5.4,14h-1.56L256,.27Z"/><path d="M288.31,12a11,11,0,0,0-.43-1.56l-.68-1.76h-5l-.67,1.76A6.55,6.55,0,0,0,281.1,12H279a13.15,13.15,0,0,0,.79-1.76l3.33-8.5A8.12,8.12,0,0,0,283.6.27h2.16a10.25,10.25,0,0,0,.51,1.47l3.35,8.5A15.36,15.36,0,0,0,290.4,12ZM285,2.59c-.06-.15-.06-.15-.3-.9l-.3.9-1.71,4.65h4Z"/><path d="M301.12,11.38q0-.41,0-.54a4.1,4.1,0,0,1-5.71.36,4.64,4.64,0,0,1-1.25-3.42c0-2.68,1.52-4.36,3.95-4.36a3.59,3.59,0,0,1,3,1.32,1.94,1.94,0,0,0,0-.39c0-.11,0-.3,0-.59V2.16A12.91,12.91,0,0,0,301,.27h1.79a14.24,14.24,0,0,0-.11,1.87v8a13.2,13.2,0,0,0,.11,1.91h-1.67ZM298.24,4.8a2.26,2.26,0,0,0-1.95,1.08,3.85,3.85,0,0,0-.45,1.87,3.49,3.49,0,0,0,.68,2.3,2.4,2.4,0,0,0,1.8.75c1.66,0,2.74-1.22,2.74-3.08A2.66,2.66,0,0,0,298.24,4.8Z"/><path d="M307.42,7.8a4.27,4.27,0,1,1,8.54,0c0,2.7-1.68,4.46-4.25,4.46A4.08,4.08,0,0,1,307.42,7.8Zm1.62,0c0,2,1,3.13,2.66,3.13s2.64-1.17,2.64-3.09-1-3.15-2.63-3.15S309,5.85,309,7.77Z"/><path d="M320.58,12a15,15,0,0,0,.1-1.91V2.14a16.24,16.24,0,0,0-.1-1.87h1.78a14.66,14.66,0,0,0-.1,1.89V3.79a10.53,10.53,0,0,1-.05,1.07,3.67,3.67,0,0,1,3.14-1.44c2.38,0,3.84,1.63,3.84,4.32s-1.5,4.45-3.95,4.45a3.56,3.56,0,0,1-3-1.35.3.3,0,0,1,0,.12,3.48,3.48,0,0,1,0,.42V12Zm4.59-7.23a2.79,2.79,0,0,0-2.87,3A2.83,2.83,0,0,0,325,10.81c1.56,0,2.52-1.17,2.52-3.07S326.65,4.77,325.17,4.77Z"/><path d="M335,8.17a3,3,0,0,0,.58,1.85,2.62,2.62,0,0,0,3.84.12,2.29,2.29,0,0,0,.45-.83l1.49.51a4,4,0,0,1-.87,1.32,4.07,4.07,0,0,1-3,1.11c-2.52,0-4.12-1.72-4.12-4.44s1.59-4.45,4-4.45a3.78,3.78,0,0,1,3.9,3.51c0,.19,0,.19.1,1.3Zm4.8-1.27a2.45,2.45,0,0,0-.72-1.61,2.38,2.38,0,0,0-3.66.53,2.64,2.64,0,0,0-.38,1.08Z"/><path d="M366.07.27A10.48,10.48,0,0,0,366,2.1v8.07a10.4,10.4,0,0,0,.12,1.83h-1.92a10.55,10.55,0,0,0,.12-1.83V2.1a10.33,10.33,0,0,0-.12-1.83Z"/><path d="M373,.27a13.56,13.56,0,0,0-.1,1.86v8A15.07,15.07,0,0,0,373,12h-1.83a12.6,12.6,0,0,0,.11-1.85v-8a11.6,11.6,0,0,0-.11-1.84Z"/><path d="M379.83.27a12,12,0,0,0-.11,1.86v8a13.24,13.24,0,0,0,.11,1.85H378a14.31,14.31,0,0,0,.1-1.85v-8A13.15,13.15,0,0,0,378,.27Z"/><path d="M392.61,3.6a11.28,11.28,0,0,0-.12,1.84v4.7a11.38,11.38,0,0,0,.12,1.86H390.9v-.72q0-.16,0-.63a3.48,3.48,0,0,1-3,1.5A2.89,2.89,0,0,1,385.39,11a3.16,3.16,0,0,1-.48-1.93V5.43a13,13,0,0,0-.1-1.83h1.83a13.29,13.29,0,0,0-.11,1.84V8.85c0,1.32.51,2,1.61,2a2.46,2.46,0,0,0,1.92-1,4.18,4.18,0,0,0,.84-1.44v-3a13.39,13.39,0,0,0-.11-1.84Z"/><path d="M398.91,9.42a1.5,1.5,0,0,0,.51,1,2.19,2.19,0,0,0,1.57.5c1.17,0,1.94-.5,1.94-1.25a1,1,0,0,0-.42-.84,4.3,4.3,0,0,0-1.65-.51,6.76,6.76,0,0,1-2.19-.7,2,2,0,0,1-1.11-1.83,2.17,2.17,0,0,1,.67-1.56,3.7,3.7,0,0,1,2.63-.86,3.8,3.8,0,0,1,2.59.81,2.64,2.64,0,0,1,.81,1.44l-1.66.23a1.21,1.21,0,0,0-.32-.74,1.93,1.93,0,0,0-1.45-.52c-1,0-1.68.48-1.68,1.17a.89.89,0,0,0,.48.76,5.5,5.5,0,0,0,1.56.47,5.6,5.6,0,0,1,2.64,1,2.1,2.1,0,0,1,.72,1.7,2.24,2.24,0,0,1-.71,1.6,4.11,4.11,0,0,1-2.92.93,3.8,3.8,0,0,1-3.2-1.26,3.28,3.28,0,0,1-.54-1.29Z"/><path d="M411.93,1.32a11.73,11.73,0,0,0-.11,1.77V3.6h.68A9.6,9.6,0,0,0,414,3.51V5a9.2,9.2,0,0,0-1.5-.09h-.71V9.78c0,.75.23,1,.93,1a2.13,2.13,0,0,0,1.17-.35l.32,1.41a4.34,4.34,0,0,1-1.82.35,2.51,2.51,0,0,1-1.68-.48,2,2,0,0,1-.52-1.61V4.93h-.59A9.48,9.48,0,0,0,408.3,5V3.51a7.27,7.27,0,0,0,1.35.09h.57V3.09a15.85,15.85,0,0,0-.11-1.77Z"/><path d="M423.78,5.19A3.78,3.78,0,0,0,422.5,5a2.16,2.16,0,0,0-1.8.8,2.48,2.48,0,0,0-.58,1.51v2.88a15.3,15.3,0,0,0,.1,1.85h-1.83a14.67,14.67,0,0,0,.11-1.85V5.44a11.77,11.77,0,0,0-.11-1.84h1.73v.67c0,.12,0,.42,0,.54a2.87,2.87,0,0,1,2.74-1.36,6,6,0,0,1,1.38.15Z"/><path d="M434,11.05a4,4,0,0,1-1.26.8,5.08,5.08,0,0,1-1.71.3c-1.77,0-2.84-.92-2.84-2.43A2.66,2.66,0,0,1,430,7.24,11.82,11.82,0,0,1,434,6.73V6.09a1.32,1.32,0,0,0-.38-1.1,2.25,2.25,0,0,0-1.42-.39A2,2,0,0,0,429.94,6l-1.65-.32a3,3,0,0,1,1-1.54,4.42,4.42,0,0,1,2.82-.8,3.59,3.59,0,0,1,2.67.83,2.4,2.4,0,0,1,.66,1.93v4.11a11.2,11.2,0,0,0,.12,1.79H434Zm0-3.15a9.37,9.37,0,0,0-3.09.41,1.45,1.45,0,0,0-1.11,1.41c0,.73.55,1.18,1.47,1.18a3.33,3.33,0,0,0,2.19-.88A1.72,1.72,0,0,0,434,8.74Z"/><path d="M443.32,1.32a13.34,13.34,0,0,0-.1,1.77V3.6h.67a9.52,9.52,0,0,0,1.53-.09V5a9.12,9.12,0,0,0-1.5-.09h-.7V9.78c0,.75.22,1,.93,1a2.15,2.15,0,0,0,1.17-.35l.31,1.41a4.3,4.3,0,0,1-1.81.35,2.48,2.48,0,0,1-1.68-.48,2,2,0,0,1-.53-1.61V4.93H441a9.52,9.52,0,0,0-1.34.09V3.51A7.34,7.34,0,0,0,441,3.6h.57V3.09a16,16,0,0,0-.1-1.77Z"/><path d="M449.41,7.8a4.27,4.27,0,1,1,8.54,0c0,2.7-1.68,4.46-4.25,4.46A4.08,4.08,0,0,1,449.41,7.8Zm1.62,0c0,2,1,3.13,2.66,3.13s2.64-1.17,2.64-3.09-1-3.15-2.63-3.15S451,5.85,451,7.77Z"/><path d="M467.94,5.19A3.78,3.78,0,0,0,466.66,5a2.15,2.15,0,0,0-1.8.8,2.48,2.48,0,0,0-.58,1.51v2.88a15.3,15.3,0,0,0,.1,1.85h-1.83a14.67,14.67,0,0,0,.11-1.85V5.44a11.77,11.77,0,0,0-.11-1.84h1.73v.67c0,.12,0,.42,0,.54A2.87,2.87,0,0,1,467,3.45a6,6,0,0,1,1.38.15Z"/><path d="M490.63,12a11.15,11.15,0,0,0,.12-1.83V2.07a13,13,0,0,0-.12-1.85c.57,0,1,.05,1.8.05h3.11c2.53,0,3.91,1.24,3.91,3.49s-1.45,3.69-4,3.69H492.4v2.69a11,11,0,0,0,.12,1.86Zm4.83-6a2,2,0,0,0,2.28-2.2c0-1.38-.78-2.1-2.28-2.1H492.4V6Z"/><path d="M503.89,12a11.25,11.25,0,0,0,.12-1.85v-8a13.66,13.66,0,0,0-.1-1.86h1.8a12,12,0,0,0-.11,1.86V4.3a6.29,6.29,0,0,1,0,.72,3.51,3.51,0,0,1,3.1-1.57,2.67,2.67,0,0,1,2.92,2.92v3.78a13.61,13.61,0,0,0,.11,1.85h-1.85a9.81,9.81,0,0,0,.12-1.85V6.73a2,2,0,0,0-.38-1.39,1.58,1.58,0,0,0-1.22-.5c-1.17,0-2.17.84-2.76,2.34v3a13.63,13.63,0,0,0,.11,1.85Z"/><path d="M516.28,7.8c0-2.72,1.67-4.44,4.27-4.44s4.26,1.72,4.26,4.42-1.68,4.46-4.24,4.46A4.08,4.08,0,0,1,516.28,7.8Zm1.62,0c0,2,1,3.13,2.65,3.13s2.64-1.17,2.64-3.09-1-3.15-2.62-3.15S517.9,5.85,517.9,7.77Z"/><path d="M532.21,1.32a11.73,11.73,0,0,0-.11,1.77V3.6h.68a9.6,9.6,0,0,0,1.53-.09V5a9.2,9.2,0,0,0-1.5-.09h-.71V9.78c0,.75.23,1,.93,1a2.13,2.13,0,0,0,1.17-.35l.32,1.41a4.34,4.34,0,0,1-1.82.35A2.51,2.51,0,0,1,531,11.7a2,2,0,0,1-.52-1.61V4.93h-.58a9.52,9.52,0,0,0-1.34.09V3.51a7.27,7.27,0,0,0,1.35.09h.57V3.09a13.77,13.77,0,0,0-.11-1.77Z"/><path d="M538.3,7.8c0-2.72,1.66-4.44,4.27-4.44a4.05,4.05,0,0,1,4.26,4.42c0,2.7-1.68,4.46-4.24,4.46A4.07,4.07,0,0,1,538.3,7.8Zm1.62,0c0,2,1,3.13,2.65,3.13s2.64-1.17,2.64-3.09-1-3.15-2.62-3.15S539.92,5.85,539.92,7.77Z"/><path d="M552.76,9.42a1.5,1.5,0,0,0,.51,1,2.19,2.19,0,0,0,1.57.5c1.17,0,1.94-.5,1.94-1.25a1,1,0,0,0-.42-.84,4.3,4.3,0,0,0-1.65-.51,6.76,6.76,0,0,1-2.19-.7,2,2,0,0,1-1.11-1.83,2.17,2.17,0,0,1,.67-1.56,3.7,3.7,0,0,1,2.63-.86,3.8,3.8,0,0,1,2.59.81,2.64,2.64,0,0,1,.81,1.44l-1.66.23a1.21,1.21,0,0,0-.32-.74,1.93,1.93,0,0,0-1.45-.52c-1,0-1.68.48-1.68,1.17a.89.89,0,0,0,.48.76A5.5,5.5,0,0,0,555,7a5.6,5.6,0,0,1,2.64,1,2.1,2.1,0,0,1,.72,1.7,2.24,2.24,0,0,1-.71,1.6,4.11,4.11,0,0,1-2.92.93,3.8,3.8,0,0,1-3.2-1.26A3.28,3.28,0,0,1,551,9.64Z"/><path d="M563,12a11.25,11.25,0,0,0,.12-1.85v-8A12,12,0,0,0,563,.27h1.8a13.56,13.56,0,0,0-.1,1.86V4.3a5,5,0,0,1-.05.72,3.54,3.54,0,0,1,3.11-1.57,2.67,2.67,0,0,1,2.92,2.92v3.78a12.16,12.16,0,0,0,.11,1.85h-1.85a10.72,10.72,0,0,0,.12-1.85V6.73a2,2,0,0,0-.39-1.39,1.54,1.54,0,0,0-1.21-.5c-1.17,0-2.18.84-2.76,2.34v3a15.53,15.53,0,0,0,.1,1.85Z"/><path d="M575.38,7.8c0-2.72,1.66-4.44,4.27-4.44a4.05,4.05,0,0,1,4.26,4.42c0,2.7-1.68,4.46-4.24,4.46A4.07,4.07,0,0,1,575.38,7.8Zm1.62,0c0,2,1,3.13,2.65,3.13s2.64-1.17,2.64-3.09-1-3.15-2.62-3.15S577,5.85,577,7.77Z"/><path d="M588.53,15a13.68,13.68,0,0,0,.11-1.86V5.49a12.91,12.91,0,0,0-.11-1.89h1.67v.66a4,4,0,0,1,0,.54,3.57,3.57,0,0,1,3.06-1.38,3.67,3.67,0,0,1,2.74,1,4.58,4.58,0,0,1,1.19,3.33c0,2.67-1.53,4.35-4,4.35a4.19,4.19,0,0,1-2.27-.63,3.81,3.81,0,0,1-.76-.69,9,9,0,0,1,0,1v1.29a12.8,12.8,0,0,0,.11,1.87Zm7-7.32c0-1.83-.93-2.91-2.49-2.91a2.78,2.78,0,0,0-2.76,3,3.27,3.27,0,0,0,.79,2.2,2.84,2.84,0,0,0,2,.8C594.59,10.77,595.51,9.61,595.51,7.69Z"/></g></g></svg>