<svg xmlns="http://www.w3.org/2000/svg" viewBox="0 0 451.03 14.28"><g id="レイヤー_2" data-name="レイヤー 2"><g id="レイヤー_1-2" data-name="レイヤー 1"><path d="M10.16,12a11.54,11.54,0,0,0-.37-1.5L8,4.56a17.4,17.4,0,0,1-.45-1.85c-.17.78-.3,1.4-.43,1.85L5.42,10.5A13.52,13.52,0,0,0,5,12H3.39A11.34,11.34,0,0,0,3,10.47L.6,2A10.38,10.38,0,0,0,0,.27H2a9.43,9.43,0,0,0,.27,1.59l1.56,6c.12.47.29,1.22.38,1.74.12-.58.33-1.42.43-1.75l1.8-6.12A7.83,7.83,0,0,0,6.81.27H8.37a12,12,0,0,0,.34,1.48l1.82,6.11c.1.33.19.73.43,1.78.25-1.17.38-1.77.38-1.8l1.54-6A7,7,0,0,0,13.15.27h2A12.63,12.63,0,0,0,14.61,2l-2.4,8.43A14.56,14.56,0,0,0,11.83,12Z"/><path d="M27.67,12.1a12.17,12.17,0,0,0-1.83-.1H21.27c-.84,0-1.19,0-1.8,0a11.43,11.43,0,0,0,.12-1.9V2.07A12.24,12.24,0,0,0,19.47.22c.54,0,1,.05,1.8.05h4.42a13.19,13.19,0,0,0,1.83-.1V1.84a12.9,12.9,0,0,0-1.83-.1H21.25v3.4H25A14.47,14.47,0,0,0,26.86,5V6.72A11.2,11.2,0,0,0,25,6.61H21.24v3.9h4.6a13.48,13.48,0,0,0,1.83-.1Z"/><path d="M34.3,12c-.79,0-1.18,0-1.81,0a10.64,10.64,0,0,0,.13-2V2A11.89,11.89,0,0,0,32.5.24c.51,0,.83,0,1.8,0h3.39c2.28,0,3.54,1,3.54,2.86a2.67,2.67,0,0,1-.82,2.07,3,3,0,0,1-1.2.62,2.68,2.68,0,0,1,1.5.66,2.91,2.91,0,0,1,.93,2.28c0,2.07-1.37,3.24-3.78,3.24Zm3.27-6.84a1.73,1.73,0,0,0,2-1.8c0-1.11-.69-1.68-2-1.68H34.27V5.16Zm-3.3,5.41h3.39c1.47,0,2.25-.7,2.25-2a1.83,1.83,0,0,0-.52-1.44,2.54,2.54,0,0,0-1.77-.57H34.27Z"/><path d="M48,8.41a2.26,2.26,0,0,0,.43,1.4,2.86,2.86,0,0,0,2.33.94c1.6,0,2.58-.75,2.58-2a1.59,1.59,0,0,0-.8-1.47A8.92,8.92,0,0,0,50,6.57a6.05,6.05,0,0,1-2.17-.83,2.75,2.75,0,0,1-1.26-2.4c0-2,1.6-3.31,4.09-3.31A4.24,4.24,0,0,1,54.22,1.5a3.72,3.72,0,0,1,.69,1.68l-1.78.21a2,2,0,0,0-.48-1.13,2.52,2.52,0,0,0-2-.78c-1.41,0-2.37.74-2.37,1.82a1.52,1.52,0,0,0,1.14,1.48,9.57,9.57,0,0,0,2.13.54A5.81,5.81,0,0,1,54,6.27a2.8,2.8,0,0,1,1.14,2.41c0,2.28-1.54,3.54-4.3,3.54A4.63,4.63,0,0,1,47,10.81a4,4,0,0,1-.83-2.2Z"/><path d="M61.9.27a10.48,10.48,0,0,0-.12,1.83v8.07A10.4,10.4,0,0,0,61.9,12H60a10.55,10.55,0,0,0,.12-1.83V2.1A10.33,10.33,0,0,0,60,.27Z"/><path d="M72,10.14A11.23,11.23,0,0,0,72.07,12H70.15a11.2,11.2,0,0,0,.12-1.86V1.77H68.13a13.94,13.94,0,0,0-1.92.1V.17a14.72,14.72,0,0,0,1.9.1H74a14.08,14.08,0,0,0,2-.1v1.7a14.54,14.54,0,0,0-2-.1H72Z"/><path d="M88.54,12.1a12.26,12.26,0,0,0-1.83-.1H82.14c-.84,0-1.19,0-1.8,0a11.43,11.43,0,0,0,.12-1.9V2.07A12.24,12.24,0,0,0,80.34.22c.54,0,1,.05,1.8.05h4.42a13.19,13.19,0,0,0,1.83-.1V1.84a12.9,12.9,0,0,0-1.83-.1H82.12v3.4h3.77A14.47,14.47,0,0,0,87.73,5V6.72a11.2,11.2,0,0,0-1.84-.11H82.11v3.9h4.6a13.48,13.48,0,0,0,1.83-.1Z"/><path d="M111.48,2.08a12,12,0,0,0-.12-1.86c.54,0,.93.05,1.8.05h2.65a5.31,5.31,0,0,1,3.93,1.32A6,6,0,0,1,121.33,6a6.27,6.27,0,0,1-1.69,4.65A5.2,5.2,0,0,1,115.81,12h-2.65c-.84,0-1.19,0-1.8,0a11.28,11.28,0,0,0,.12-1.9Zm4.24,8.43a3.45,3.45,0,0,0,2.72-1,4.92,4.92,0,0,0,1.17-3.46,4.6,4.6,0,0,0-1.1-3.36,3.49,3.49,0,0,0-2.76-1h-2.61v8.76Z"/><path d="M134.35,12.1a12.26,12.26,0,0,0-1.83-.1H128c-.84,0-1.19,0-1.8,0a11.43,11.43,0,0,0,.12-1.9V2.07a12.24,12.24,0,0,0-.12-1.85c.54,0,1,.05,1.8.05h4.42a13.19,13.19,0,0,0,1.83-.1V1.84a12.9,12.9,0,0,0-1.83-.1h-4.44v3.4h3.77a14.47,14.47,0,0,0,1.84-.1V6.72a11.2,11.2,0,0,0-1.84-.11h-3.78v3.9h4.6a13.48,13.48,0,0,0,1.83-.1Z"/><path d="M140.62,8.41a2.26,2.26,0,0,0,.44,1.4,2.84,2.84,0,0,0,2.32.94c1.61,0,2.58-.75,2.58-2a1.58,1.58,0,0,0-.79-1.47,9.06,9.06,0,0,0-2.55-.73,6.11,6.11,0,0,1-2.18-.83,2.75,2.75,0,0,1-1.26-2.4c0-2,1.61-3.31,4.1-3.31a4.24,4.24,0,0,1,3.57,1.47,4,4,0,0,1,.69,1.68l-1.79.21a2,2,0,0,0-.48-1.13,2.5,2.5,0,0,0-2-.78c-1.41,0-2.37.74-2.37,1.82A1.52,1.52,0,0,0,142,4.78a10,10,0,0,0,2.13.54,5.8,5.8,0,0,1,2.42.95,2.8,2.8,0,0,1,1.14,2.41c0,2.28-1.55,3.54-4.31,3.54a4.63,4.63,0,0,1-3.78-1.41,4,4,0,0,1-.82-2.2Z"/><path d="M154.53.27a10.48,10.48,0,0,0-.12,1.83v8.07a10.4,10.4,0,0,0,.12,1.83h-1.92a10.55,10.55,0,0,0,.12-1.83V2.1a10.33,10.33,0,0,0-.12-1.83Z"/><path d="M166.8,7.3a8.57,8.57,0,0,0-1.53.09V5.74a11,11,0,0,0,1.72.09h.65a12.35,12.35,0,0,0,1.69-.07,12.06,12.06,0,0,0-.1,1.81v1.5a11.4,11.4,0,0,0,.1,1.83,9.05,9.05,0,0,1-2.25,1,9.41,9.41,0,0,1-2.17.27A5.17,5.17,0,0,1,161,10.72a6.68,6.68,0,0,1-1.6-4.65c0-2.52,1-4.45,2.76-5.44A5.37,5.37,0,0,1,164.88,0a4.78,4.78,0,0,1,3.36,1.21A4.47,4.47,0,0,1,169.35,3l-1.71.48a2.69,2.69,0,0,0-2.94-2c-2.22,0-3.6,1.74-3.6,4.56a5.43,5.43,0,0,0,1.12,3.63,3.39,3.39,0,0,0,2.67,1.07,4.91,4.91,0,0,0,2.75-.75V7.3Z"/><path d="M181.42,8c.29.45.75,1.2,1.08,1.78-.06-.79-.09-1.48-.09-2V2.19a11.54,11.54,0,0,0-.12-1.92h1.88a11.37,11.37,0,0,0-.12,1.93v8a10.5,10.5,0,0,0,.12,1.85h-2.09a13.7,13.7,0,0,0-.88-1.52l-4.26-6.4c-.23-.36-.6-1-.93-1.64.06.65.09,1.41.09,1.95V9.93a12.45,12.45,0,0,0,.12,2.07h-1.86a14.78,14.78,0,0,0,.12-2.07V2.1a11.15,11.15,0,0,0-.12-1.83h2a8.25,8.25,0,0,0,.86,1.5Z"/><path d="M208.44,11.07a4.09,4.09,0,0,1-.95-1.46,10,10,0,0,1-.58-3.46A9,9,0,0,1,207.79,2a4.38,4.38,0,0,1,6.65-.84,3.89,3.89,0,0,1,.94,1.45A10.09,10.09,0,0,1,216,6.13a8,8,0,0,1-1.08,4.4,4.42,4.42,0,0,1-6.45.54Zm1.23-8.82A2.86,2.86,0,0,0,209,3.37a9.26,9.26,0,0,0-.4,2.81,7.68,7.68,0,0,0,.67,3.37,2.53,2.53,0,0,0,3.87.56,2.84,2.84,0,0,0,.69-1.22,9.18,9.18,0,0,0,.41-2.77,8.27,8.27,0,0,0-.62-3.29,2.3,2.3,0,0,0-2.22-1.35A2.12,2.12,0,0,0,209.67,2.25Z"/><path d="M222.28,12a12.87,12.87,0,0,0-1.83.07,7.27,7.27,0,0,1,.42-2,7.18,7.18,0,0,1,2-2.79,22.11,22.11,0,0,1,2.4-1.75c1.43-1,1.85-1.52,1.85-2.43s-.86-1.68-2.21-1.68a2.3,2.3,0,0,0-2,.93,3.23,3.23,0,0,0-.48,1.44l-1.78-.24a4.33,4.33,0,0,1,1-2.31A4.11,4.11,0,0,1,224.88,0c2.49,0,4,1.21,4,3.16A3.19,3.19,0,0,1,227.4,6c-.47.35-.68.5-2,1.4-1.68,1.12-2.43,2-2.82,3.15H227a13.8,13.8,0,0,0,2-.11v1.7c-.66-.06-1.23-.09-2.1-.09Z"/><path d="M240.21.27l-5.4,14h-1.56l5.43-14Z"/><path d="M271,12a11,11,0,0,0-.43-1.56l-.68-1.76h-5l-.67,1.76a6.55,6.55,0,0,0-.45,1.56h-2.1a13.15,13.15,0,0,0,.79-1.76l3.33-8.5a8.12,8.12,0,0,0,.48-1.47h2.16a10.25,10.25,0,0,0,.51,1.47l3.35,8.5a15.36,15.36,0,0,0,.78,1.76Zm-3.31-9.41c-.06-.15-.06-.15-.3-.9l-.3.9-1.71,4.65h4Z"/><path d="M283.78,11.38q0-.41,0-.54a4.1,4.1,0,0,1-5.71.36,4.64,4.64,0,0,1-1.25-3.42c0-2.68,1.52-4.36,3.95-4.36a3.59,3.59,0,0,1,3,1.32,1.94,1.94,0,0,0,0-.39c0-.11,0-.3,0-.59V2.16a12.91,12.91,0,0,0-.11-1.89h1.79a14.24,14.24,0,0,0-.11,1.87v8a13.2,13.2,0,0,0,.11,1.91h-1.67ZM280.9,4.8A2.26,2.26,0,0,0,279,5.88a3.85,3.85,0,0,0-.45,1.87,3.49,3.49,0,0,0,.68,2.3,2.4,2.4,0,0,0,1.8.75c1.66,0,2.74-1.22,2.74-3.08A2.66,2.66,0,0,0,280.9,4.8Z"/><path d="M290.08,7.8a4.27,4.27,0,1,1,8.54,0c0,2.7-1.68,4.46-4.25,4.46A4.08,4.08,0,0,1,290.08,7.8Zm1.62,0c0,2,1,3.13,2.66,3.13S297,9.73,297,7.81s-1-3.15-2.63-3.15S291.7,5.85,291.7,7.77Z"/><path d="M303.24,12a15,15,0,0,0,.1-1.91V2.14a16.24,16.24,0,0,0-.1-1.87H305a14.66,14.66,0,0,0-.1,1.89V3.79a10.53,10.53,0,0,1-.05,1.07A3.67,3.67,0,0,1,308,3.42c2.38,0,3.84,1.63,3.84,4.32s-1.5,4.45-4,4.45a3.56,3.56,0,0,1-3-1.35.3.3,0,0,1,0,.12,3.48,3.48,0,0,1,0,.42V12Zm4.59-7.23a2.79,2.79,0,0,0-2.87,3,2.83,2.83,0,0,0,2.73,3.06c1.56,0,2.52-1.17,2.52-3.07S309.31,4.77,307.83,4.77Z"/><path d="M317.67,8.17a3,3,0,0,0,.58,1.85,2.62,2.62,0,0,0,3.84.12,2.29,2.29,0,0,0,.45-.83l1.49.51a4,4,0,0,1-.87,1.32,4.07,4.07,0,0,1-3,1.11c-2.52,0-4.12-1.72-4.12-4.44s1.59-4.45,4-4.45A3.78,3.78,0,0,1,324,6.87c0,.19,0,.19.1,1.3Zm4.8-1.27a2.45,2.45,0,0,0-.72-1.61,2.38,2.38,0,0,0-3.66.53,2.64,2.64,0,0,0-.38,1.08Z"/><path d="M348.73.27a10.48,10.48,0,0,0-.12,1.83v8.07a10.4,10.4,0,0,0,.12,1.83h-1.92a10.55,10.55,0,0,0,.12-1.83V2.1a10.33,10.33,0,0,0-.12-1.83Z"/><path d="M355.66.27a13.56,13.56,0,0,0-.1,1.86v8a15.07,15.07,0,0,0,.1,1.85h-1.83a12.6,12.6,0,0,0,.11-1.85v-8a11.6,11.6,0,0,0-.11-1.84Z"/><path d="M362.49.27a12,12,0,0,0-.11,1.86v8a13.24,13.24,0,0,0,.11,1.85h-1.83a14.31,14.31,0,0,0,.1-1.85v-8a13.15,13.15,0,0,0-.1-1.84Z"/><path d="M375.27,3.6a11.28,11.28,0,0,0-.12,1.84v4.7a11.38,11.38,0,0,0,.12,1.86h-1.71v-.72q0-.16,0-.63a3.48,3.48,0,0,1-3,1.5A2.89,2.89,0,0,1,368.05,11a3.16,3.16,0,0,1-.48-1.93V5.43a13,13,0,0,0-.1-1.83h1.83a13.29,13.29,0,0,0-.11,1.84V8.85c0,1.32.51,2,1.61,2a2.46,2.46,0,0,0,1.92-1,4.18,4.18,0,0,0,.84-1.44v-3a13.39,13.39,0,0,0-.11-1.84Z"/><path d="M381.57,9.42a1.5,1.5,0,0,0,.51,1,2.19,2.19,0,0,0,1.57.5c1.17,0,1.94-.5,1.94-1.25a1,1,0,0,0-.42-.84,4.3,4.3,0,0,0-1.65-.51,6.76,6.76,0,0,1-2.19-.7,2,2,0,0,1-1.11-1.83,2.17,2.17,0,0,1,.67-1.56,3.7,3.7,0,0,1,2.63-.86,3.8,3.8,0,0,1,2.59.81,2.64,2.64,0,0,1,.81,1.44l-1.66.23a1.21,1.21,0,0,0-.32-.74,1.93,1.93,0,0,0-1.45-.52c-1,0-1.68.48-1.68,1.17a.89.89,0,0,0,.48.76,5.5,5.5,0,0,0,1.56.47,5.6,5.6,0,0,1,2.64,1,2.1,2.1,0,0,1,.72,1.7,2.24,2.24,0,0,1-.71,1.6,4.11,4.11,0,0,1-2.92.93,3.8,3.8,0,0,1-3.2-1.26,3.28,3.28,0,0,1-.54-1.29Z"/><path d="M394.59,1.32a11.73,11.73,0,0,0-.11,1.77V3.6h.68a9.6,9.6,0,0,0,1.53-.09V5a9.2,9.2,0,0,0-1.5-.09h-.71V9.78c0,.75.23,1,.93,1a2.13,2.13,0,0,0,1.17-.35l.32,1.41a4.34,4.34,0,0,1-1.82.35,2.51,2.51,0,0,1-1.68-.48,2,2,0,0,1-.52-1.61V4.93h-.59A9.48,9.48,0,0,0,391,5V3.51a7.27,7.27,0,0,0,1.35.09h.57V3.09a15.85,15.85,0,0,0-.11-1.77Z"/><path d="M406.44,5.19A3.78,3.78,0,0,0,405.16,5a2.15,2.15,0,0,0-1.8.8,2.48,2.48,0,0,0-.58,1.51v2.88a15.3,15.3,0,0,0,.1,1.85h-1.83a14.67,14.67,0,0,0,.11-1.85V5.44a11.77,11.77,0,0,0-.11-1.84h1.73v.67c0,.12,0,.42,0,.54a2.87,2.87,0,0,1,2.74-1.36,6,6,0,0,1,1.38.15Z"/><path d="M416.6,11.05a3.9,3.9,0,0,1-1.26.8,5,5,0,0,1-1.71.3c-1.76,0-2.83-.92-2.83-2.43a2.65,2.65,0,0,1,1.89-2.48,11.75,11.75,0,0,1,3.91-.51V6.09a1.32,1.32,0,0,0-.37-1.1,2.28,2.28,0,0,0-1.43-.39A2,2,0,0,0,412.6,6L411,5.68A3,3,0,0,1,412,4.14a4.42,4.42,0,0,1,2.82-.8,3.61,3.61,0,0,1,2.67.83,2.4,2.4,0,0,1,.66,1.93v4.11a11.2,11.2,0,0,0,.12,1.79H416.6Zm0-3.15a9.46,9.46,0,0,0-3.09.41,1.44,1.44,0,0,0-1.1,1.41c0,.73.55,1.18,1.47,1.18a3.29,3.29,0,0,0,2.18-.88,1.72,1.72,0,0,0,.54-1.28Z"/><path d="M426,1.32a13.34,13.34,0,0,0-.1,1.77V3.6h.67a9.6,9.6,0,0,0,1.53-.09V5a9.2,9.2,0,0,0-1.5-.09h-.7V9.78c0,.75.22,1,.92,1a2.1,2.1,0,0,0,1.17-.35l.32,1.41a4.31,4.31,0,0,1-1.82.35,2.51,2.51,0,0,1-1.68-.48,2,2,0,0,1-.52-1.61V4.93h-.58a9.52,9.52,0,0,0-1.34.09V3.51a7.27,7.27,0,0,0,1.35.09h.57V3.09a16,16,0,0,0-.1-1.77Z"/><path d="M432.07,7.8c0-2.72,1.67-4.44,4.27-4.44s4.26,1.72,4.26,4.42-1.68,4.46-4.24,4.46A4.08,4.08,0,0,1,432.07,7.8Zm1.62,0c0,2,1,3.13,2.65,3.13S439,9.73,439,7.81s-1-3.15-2.62-3.15S433.69,5.85,433.69,7.77Z"/><path d="M450.59,5.19A3.76,3.76,0,0,0,449.32,5a2.15,2.15,0,0,0-1.8.8,2.55,2.55,0,0,0-.59,1.51v2.88A13.44,13.44,0,0,0,447,12h-1.83a14.63,14.63,0,0,0,.1-1.85V5.44a11.93,11.93,0,0,0-.1-1.84h1.72v.67a4.89,4.89,0,0,1,0,.54,2.88,2.88,0,0,1,2.75-1.36A6.09,6.09,0,0,1,451,3.6Z"/></g></g></svg>