<svg xmlns="http://www.w3.org/2000/svg" viewBox="0 0 628.96 15.01"><g id="レイヤー_2" data-name="レイヤー 2"><g id="レイヤー_1-2" data-name="レイヤー 1"><path d="M0,12a11.08,11.08,0,0,0,.12-1.83V2.07A13,13,0,0,0,0,.22c.57,0,1,.05,1.8.05H4.91c2.53,0,3.91,1.24,3.91,3.49s-1.45,3.7-4,3.7H1.77v2.68A11,11,0,0,0,1.89,12ZM4.83,6a2,2,0,0,0,2.28-2.2c0-1.38-.78-2.1-2.28-2.1H1.77V6Z"/><path d="M21,12a12.2,12.2,0,0,0-.82-2.48c-.83-2-1.38-2.62-2.55-2.62H15.14v3.24A10.63,10.63,0,0,0,15.26,12H13.37a10.8,10.8,0,0,0,.12-1.85V2.07A12.24,12.24,0,0,0,13.37.22c.55,0,1,.05,1.8.05h3.48a3.67,3.67,0,0,1,2.68.87,2.85,2.85,0,0,1,.83,2.16,3,3,0,0,1-.83,2.22,3.16,3.16,0,0,1-1.65.82c.66.2,1,.59,1.55,1.66.31.62.67,1.4,1.17,2.54.16.39.49,1.08.68,1.46ZM18.38,5.46a2,2,0,0,0,1.78-.9,2.05,2.05,0,0,0,.27-1.11A1.72,1.72,0,0,0,20,2.19a2,2,0,0,0-1.53-.49H15.14V5.46Z"/><path d="M36.51,1.5a6.44,6.44,0,0,1,1.65,4.62c0,3.72-2.13,6.12-5.43,6.12S27.3,9.85,27.3,6.12,29.43,0,32.73,0A5.1,5.1,0,0,1,36.51,1.5Zm-.09,4.6a5,5,0,0,0-1.25-3.63,3.34,3.34,0,0,0-2.44-1c-2.25,0-3.7,1.8-3.7,4.61s1.47,4.63,3.72,4.63S36.42,9,36.42,6.1Z"/><path d="M49.14.27A8.77,8.77,0,0,0,49,2.1V8.89a3.63,3.63,0,0,1-.51,2,3.28,3.28,0,0,1-2.91,1.28,3.68,3.68,0,0,1-2.82-1A4.29,4.29,0,0,1,42,9.87l1.64-.65a2.7,2.7,0,0,0,.53.95,1.9,1.9,0,0,0,1.47.57A1.72,1.72,0,0,0,47,10.15a2.13,2.13,0,0,0,.32-1.29V2.1A10.48,10.48,0,0,0,47.22.27Z"/><path d="M62.53,12.1A12.26,12.26,0,0,0,60.7,12H56.13c-.84,0-1.19,0-1.8,0a11.43,11.43,0,0,0,.12-1.9V2.07A12.24,12.24,0,0,0,54.33.22c.54,0,1,.05,1.8.05h4.42a13.19,13.19,0,0,0,1.83-.1V1.84a12.9,12.9,0,0,0-1.83-.1H56.11v3.4h3.77A12.83,12.83,0,0,0,61.72,5V6.72a11.39,11.39,0,0,0-1.84-.1H56.1v3.89h4.6a13.48,13.48,0,0,0,1.83-.1Z"/><path d="M75.37,3.83a3.13,3.13,0,0,0-.66-1.33,3,3,0,0,0-2.35-1c-2.27,0-3.65,1.74-3.65,4.59s1.43,4.64,3.66,4.64a2.92,2.92,0,0,0,3.11-2.6l1.78.35a5.23,5.23,0,0,1-.93,2,4.94,4.94,0,0,1-4,1.68,5.06,5.06,0,0,1-3.72-1.39A6.69,6.69,0,0,1,67,6.17,6.57,6.57,0,0,1,68.8,1.33,4.89,4.89,0,0,1,72.34,0,4.81,4.81,0,0,1,75.85,1.3,4.44,4.44,0,0,1,77.1,3.39Z"/><path d="M86.85,10.14A11.15,11.15,0,0,0,87,12H85.05a12.41,12.41,0,0,0,.12-1.86V1.77H83a12.3,12.3,0,0,0-1.92.11V.17A14.78,14.78,0,0,0,83,.27H88.9a14,14,0,0,0,2-.1V1.88a12.7,12.7,0,0,0-2-.11H86.85Z"/><path d="M113.23,12a11.08,11.08,0,0,0,.12-1.83V2.07a13,13,0,0,0-.12-1.85c.57,0,1,.05,1.8.05h3.11c2.53,0,3.91,1.24,3.91,3.49s-1.45,3.7-4,3.7H115v2.68a11,11,0,0,0,.12,1.86Zm4.83-6a2,2,0,0,0,2.28-2.2c0-1.38-.78-2.1-2.28-2.1H115V6Z"/><path d="M128.4,12c-.78,0-1.28,0-1.8,0a11.23,11.23,0,0,0,.12-1.89V2.33A12.47,12.47,0,0,0,126.6.27h1.92a12,12,0,0,0-.12,2V10.5h4.41a13.43,13.43,0,0,0,2-.11V12.1a13.67,13.67,0,0,0-2-.1Z"/><path d="M147.39,12a11.42,11.42,0,0,0-.44-1.56l-.67-1.76h-5l-.68,1.76a7.64,7.64,0,0,0-.45,1.56h-2.1a13,13,0,0,0,.8-1.76l3.33-8.5a10.18,10.18,0,0,0,.48-1.47h2.16a8.72,8.72,0,0,0,.51,1.47l3.34,8.5a17.43,17.43,0,0,0,.78,1.76Zm-3.32-9.41a9,9,0,0,1-.3-.89c-.25.77-.25.77-.3.89l-1.71,4.66h4Z"/><path d="M160.81,8c.29.45.75,1.2,1.08,1.78-.06-.79-.09-1.48-.09-2V2.19a11.54,11.54,0,0,0-.12-1.92h1.88a11.42,11.42,0,0,0-.12,1.94v7.94a10.5,10.5,0,0,0,.12,1.85h-2.09a13.7,13.7,0,0,0-.88-1.52l-4.26-6.4c-.23-.36-.6-1-.93-1.63.06.64.09,1.4.09,1.94V9.93a12.45,12.45,0,0,0,.12,2.07h-1.86a14.78,14.78,0,0,0,.12-2.07V2.1a11.31,11.31,0,0,0-.12-1.83h2a8.25,8.25,0,0,0,.86,1.5Z"/><path d="M175.81,8c.29.45.75,1.2,1.08,1.78-.06-.79-.09-1.48-.09-2V2.19a11.54,11.54,0,0,0-.12-1.92h1.88a11.42,11.42,0,0,0-.12,1.94v7.94a10.5,10.5,0,0,0,.12,1.85h-2.09a13.7,13.7,0,0,0-.88-1.52l-4.26-6.4c-.23-.36-.6-1-.93-1.63.06.64.09,1.4.09,1.94V9.93a12.45,12.45,0,0,0,.12,2.07h-1.86a14.78,14.78,0,0,0,.12-2.07V2.1a11.31,11.31,0,0,0-.12-1.83h2a8.25,8.25,0,0,0,.86,1.5Z"/><path d="M185.67.27a10.55,10.55,0,0,0-.12,1.83v8.07a10.4,10.4,0,0,0,.12,1.83h-1.92a10.55,10.55,0,0,0,.12-1.83V2.1a10.33,10.33,0,0,0-.12-1.83Z"/><path d="M197.94,8c.28.45.75,1.2,1.08,1.78-.06-.79-.09-1.48-.09-2V2.19a11.54,11.54,0,0,0-.12-1.92h1.87a11.42,11.42,0,0,0-.12,1.94v7.94a10.5,10.5,0,0,0,.12,1.85H198.6a12.53,12.53,0,0,0-.89-1.52l-4.26-6.4c-.22-.36-.6-1-.93-1.63.06.64.09,1.4.09,1.94V9.93a12.45,12.45,0,0,0,.12,2.07h-1.86A13.38,13.38,0,0,0,191,9.93V2.1a11.31,11.31,0,0,0-.12-1.83h2a7.48,7.48,0,0,0,.85,1.5Z"/><path d="M212.94,7.3a8.57,8.57,0,0,0-1.53.09V5.75a12.89,12.89,0,0,0,1.72.08h.65a12.35,12.35,0,0,0,1.69-.07,12.27,12.27,0,0,0-.1,1.82V9.07a11.4,11.4,0,0,0,.1,1.83,9.05,9.05,0,0,1-2.25,1,9.41,9.41,0,0,1-2.17.27,5.17,5.17,0,0,1-4-1.46,6.66,6.66,0,0,1-1.6-4.64c0-2.53,1-4.46,2.76-5.45A5.47,5.47,0,0,1,211,0a4.78,4.78,0,0,1,3.36,1.21A4.47,4.47,0,0,1,215.49,3l-1.71.48a2.68,2.68,0,0,0-2.94-2c-2.22,0-3.6,1.73-3.6,4.55a5.41,5.41,0,0,0,1.12,3.63A3.39,3.39,0,0,0,211,10.74a4.91,4.91,0,0,0,2.75-.75V7.3Z"/><path d="M239.58,11.07a4.09,4.09,0,0,1-1-1.46,10,10,0,0,1-.58-3.46A9.05,9.05,0,0,1,238.93,2a4.38,4.38,0,0,1,6.65-.84,3.85,3.85,0,0,1,.94,1.46,10.07,10.07,0,0,1,.59,3.47,8,8,0,0,1-1.08,4.4,4.42,4.42,0,0,1-6.45.54Zm1.23-8.82a2.89,2.89,0,0,0-.65,1.13,9.15,9.15,0,0,0-.4,2.8,7.68,7.68,0,0,0,.67,3.37,2.53,2.53,0,0,0,3.87.56A2.84,2.84,0,0,0,245,8.89a9.18,9.18,0,0,0,.41-2.77,8.31,8.31,0,0,0-.62-3.29,2.29,2.29,0,0,0-2.22-1.34A2.12,2.12,0,0,0,240.81,2.25Z"/><path d="M253.18,8.94a2,2,0,0,0,.8,1.29,3.08,3.08,0,0,0,1.87.57c1.58,0,2.6-.81,2.6-2.09s-1-2.08-2.76-2.08a9.52,9.52,0,0,0-1.46.08V5.12a9.55,9.55,0,0,0,1.2.09,3.54,3.54,0,0,0,1.83-.41,1.8,1.8,0,0,0,.84-1.59c0-1.16-.79-1.77-2.26-1.77a2.18,2.18,0,0,0-1.82.75,2.3,2.3,0,0,0-.43,1l-1.79-.34a3.59,3.59,0,0,1,1-1.72A4.36,4.36,0,0,1,255.94,0c2.37,0,3.9,1.22,3.9,3.09a2.69,2.69,0,0,1-1,2.21,3.37,3.37,0,0,1-1.42.57,3.09,3.09,0,0,1,2.13,1,2.87,2.87,0,0,1,.72,2.07,3,3,0,0,1-.89,2.16,4.87,4.87,0,0,1-3.48,1.17,4.6,4.6,0,0,1-3.64-1.34,4,4,0,0,1-.81-1.59Z"/><path d="M289.35.27l-5.4,14h-1.56l5.43-14Z"/><path d="M320.11,12a11.43,11.43,0,0,0-.43-1.56L319,8.68h-5l-.67,1.76A6.55,6.55,0,0,0,312.9,12h-2.1a13.15,13.15,0,0,0,.79-1.76l3.33-8.5A8.12,8.12,0,0,0,315.4.27h2.16a9.83,9.83,0,0,0,.51,1.47l3.35,8.5A15.36,15.36,0,0,0,322.2,12ZM316.8,2.59a9,9,0,0,1-.3-.89l-.3.89-1.71,4.66h4Z"/><path d="M332.92,11.38q0-.41,0-.54a4.1,4.1,0,0,1-5.71.36A4.63,4.63,0,0,1,326,7.79c0-2.69,1.52-4.37,3.95-4.37a3.59,3.59,0,0,1,3,1.32,2,2,0,0,0,0-.39c0-.1,0-.3,0-.59V2.16A12.91,12.91,0,0,0,332.8.27h1.79a14.24,14.24,0,0,0-.11,1.87v8a13.2,13.2,0,0,0,.11,1.91h-1.67ZM330,4.8a2.28,2.28,0,0,0-2,1.08,3.85,3.85,0,0,0-.45,1.87,3.47,3.47,0,0,0,.68,2.3,2.4,2.4,0,0,0,1.8.75c1.66,0,2.74-1.22,2.74-3.08A2.66,2.66,0,0,0,330,4.8Z"/><path d="M339.22,7.8a4.07,4.07,0,0,1,4.28-4.44c2.61,0,4.26,1.72,4.26,4.43a4.27,4.27,0,1,1-8.54,0Zm1.62,0c0,2,1,3.13,2.66,3.13s2.64-1.17,2.64-3.09-1-3.14-2.63-3.14S340.84,5.85,340.84,7.77Z"/><path d="M352.38,12a15,15,0,0,0,.1-1.91V2.14a16.24,16.24,0,0,0-.1-1.87h1.78a14.66,14.66,0,0,0-.1,1.89V3.79A10.39,10.39,0,0,1,354,4.86a3.67,3.67,0,0,1,3.14-1.44c2.38,0,3.84,1.63,3.84,4.32s-1.5,4.45-3.95,4.45a3.56,3.56,0,0,1-3-1.35.3.3,0,0,1,0,.12,3.48,3.48,0,0,1,0,.42V12ZM357,4.77a2.79,2.79,0,0,0-2.87,3,2.83,2.83,0,0,0,2.73,3.06c1.56,0,2.52-1.17,2.52-3.07S358.45,4.77,357,4.77Z"/><path d="M366.81,8.17a3,3,0,0,0,.58,1.85,2.39,2.39,0,0,0,2,.9,2.35,2.35,0,0,0,1.87-.78,2.29,2.29,0,0,0,.45-.83l1.49.51a3.75,3.75,0,0,1-.88,1.32,4,4,0,0,1-3,1.11c-2.52,0-4.12-1.72-4.12-4.44s1.59-4.45,4-4.45a3.76,3.76,0,0,1,3.89,3.51,8.59,8.59,0,0,1,.11,1.3Zm4.8-1.27a2.47,2.47,0,0,0-.72-1.61,2.26,2.26,0,0,0-1.67-.62,2.23,2.23,0,0,0-2,1.15,2.7,2.7,0,0,0-.38,1.08Z"/><path d="M397.87.27a10.55,10.55,0,0,0-.12,1.83v8.07a10.4,10.4,0,0,0,.12,1.83H396a10.55,10.55,0,0,0,.12-1.83V2.1A10.33,10.33,0,0,0,396,.27Z"/><path d="M404.8.27a13.56,13.56,0,0,0-.1,1.86v8a15.07,15.07,0,0,0,.1,1.85H403a12.6,12.6,0,0,0,.11-1.85v-8A11.66,11.66,0,0,0,403,.27Z"/><path d="M411.63.27a12,12,0,0,0-.11,1.86v8a13.24,13.24,0,0,0,.11,1.85H409.8a14.31,14.31,0,0,0,.1-1.85v-8a13.21,13.21,0,0,0-.1-1.85Z"/><path d="M424.41,3.6a11.28,11.28,0,0,0-.12,1.84v4.7a11.38,11.38,0,0,0,.12,1.86H422.7v-.72q0-.16,0-.63a3.48,3.48,0,0,1-3,1.5A2.89,2.89,0,0,1,417.19,11a3.16,3.16,0,0,1-.48-1.93V5.43a13,13,0,0,0-.1-1.83h1.83a13.39,13.39,0,0,0-.11,1.84V8.85c0,1.32.51,2,1.61,2a2.46,2.46,0,0,0,1.92-1,4.22,4.22,0,0,0,.84-1.43v-3a13.39,13.39,0,0,0-.11-1.84Z"/><path d="M430.71,9.42a1.5,1.5,0,0,0,.51,1,2.17,2.17,0,0,0,1.57.5c1.17,0,1.94-.5,1.94-1.25a1,1,0,0,0-.42-.84,4.3,4.3,0,0,0-1.65-.51,6.76,6.76,0,0,1-2.19-.7,2,2,0,0,1-1.11-1.83A2.18,2.18,0,0,1,430,4.23a3.7,3.7,0,0,1,2.63-.85,3.8,3.8,0,0,1,2.59.8,2.67,2.67,0,0,1,.81,1.44l-1.66.23a1.21,1.21,0,0,0-.32-.73,1.9,1.9,0,0,0-1.46-.53c-1,0-1.67.48-1.67,1.17a.86.86,0,0,0,.48.76A5.19,5.19,0,0,0,433,7a5.5,5.5,0,0,1,2.63,1,2.07,2.07,0,0,1,.72,1.7,2.23,2.23,0,0,1-.7,1.6,4.11,4.11,0,0,1-2.92.93,3.8,3.8,0,0,1-3.2-1.26A3.28,3.28,0,0,1,429,9.64Z"/><path d="M443.73,1.32a11.73,11.73,0,0,0-.11,1.77V3.6h.67a9.65,9.65,0,0,0,1.54-.09V5a9.28,9.28,0,0,0-1.5-.09h-.71V9.78c0,.75.22,1,.93,1a2.13,2.13,0,0,0,1.17-.35l.32,1.41a4.34,4.34,0,0,1-1.82.35,2.5,2.5,0,0,1-1.68-.48,2,2,0,0,1-.52-1.61V4.93h-.59A9.48,9.48,0,0,0,440.1,5V3.51a7.27,7.27,0,0,0,1.35.09H442V3.09a15.85,15.85,0,0,0-.11-1.77Z"/><path d="M455.58,5.19A3.78,3.78,0,0,0,454.3,5a2.15,2.15,0,0,0-1.8.8,2.48,2.48,0,0,0-.58,1.51v2.88A15.3,15.3,0,0,0,452,12h-1.83a14.63,14.63,0,0,0,.1-1.85V5.44a11.93,11.93,0,0,0-.1-1.84h1.73v.67a4.73,4.73,0,0,1,0,.54,2.88,2.88,0,0,1,2.75-1.36A6.09,6.09,0,0,1,456,3.6Z"/><path d="M465.74,11.05a3.9,3.9,0,0,1-1.26.8,5,5,0,0,1-1.71.3c-1.77,0-2.83-.92-2.83-2.43a2.62,2.62,0,0,1,1.89-2.47,11.43,11.43,0,0,1,3.91-.52V6.09A1.33,1.33,0,0,0,465.37,5a2.24,2.24,0,0,0-1.43-.4,2,2,0,0,0-2.2,1.4l-1.65-.32a3,3,0,0,1,1.05-1.54,4.42,4.42,0,0,1,2.82-.8,3.62,3.62,0,0,1,2.67.83,2.43,2.43,0,0,1,.66,1.93v4.11a11.2,11.2,0,0,0,.12,1.79h-1.67Zm0-3.15a9.46,9.46,0,0,0-3.09.41,1.45,1.45,0,0,0-1.11,1.41c0,.74.56,1.18,1.47,1.18A3.29,3.29,0,0,0,465.2,10a1.72,1.72,0,0,0,.54-1.27Z"/><path d="M475.12,1.32A11.73,11.73,0,0,0,475,3.09V3.6h.68a9.6,9.6,0,0,0,1.53-.09V5a9.2,9.2,0,0,0-1.5-.09H475V9.78c0,.75.23,1,.93,1a2.1,2.1,0,0,0,1.17-.35l.32,1.41a4.34,4.34,0,0,1-1.82.35,2.51,2.51,0,0,1-1.68-.48,2,2,0,0,1-.52-1.61V4.93h-.58a9.52,9.52,0,0,0-1.34.09V3.51a7.27,7.27,0,0,0,1.35.09h.57V3.09a13.77,13.77,0,0,0-.11-1.77Z"/><path d="M481.21,7.8c0-2.72,1.67-4.44,4.27-4.44s4.26,1.72,4.26,4.43a4.27,4.27,0,1,1-8.53,0Zm1.62,0c0,2,1,3.13,2.65,3.13s2.64-1.17,2.64-3.09-1-3.14-2.62-3.14S482.83,5.85,482.83,7.77Z"/><path d="M499.73,5.19A3.76,3.76,0,0,0,498.46,5a2.15,2.15,0,0,0-1.8.8,2.55,2.55,0,0,0-.59,1.51v2.88a13.44,13.44,0,0,0,.11,1.85h-1.83a16.77,16.77,0,0,0,.1-1.85V5.44a13.34,13.34,0,0,0-.1-1.84h1.72v.67a4.75,4.75,0,0,1,0,.54,2.88,2.88,0,0,1,2.75-1.36,6.09,6.09,0,0,1,1.38.15Z"/><path d="M522.43,12a11.08,11.08,0,0,0,.12-1.83V2.07a13,13,0,0,0-.12-1.85c.57,0,1,.05,1.8.05h3.1c2.54,0,3.92,1.24,3.92,3.49s-1.46,3.7-4,3.7H524.2v2.68a11,11,0,0,0,.12,1.86Zm4.83-6a2,2,0,0,0,2.28-2.2c0-1.38-.78-2.1-2.28-2.1H524.2V6Z"/><path d="M535.69,12a11.25,11.25,0,0,0,.12-1.85v-8A12.13,12.13,0,0,0,535.7.27h1.8a13.56,13.56,0,0,0-.1,1.86V4.3a5,5,0,0,1,0,.72,3.54,3.54,0,0,1,3.11-1.57,2.68,2.68,0,0,1,2.92,2.93v3.77a12.16,12.16,0,0,0,.11,1.85h-1.85a10.72,10.72,0,0,0,.12-1.85V6.73a2,2,0,0,0-.39-1.39,1.54,1.54,0,0,0-1.21-.5c-1.17,0-2.18.84-2.76,2.34v3a15.53,15.53,0,0,0,.1,1.85Z"/><path d="M548.08,7.8c0-2.72,1.66-4.44,4.27-4.44s4.26,1.72,4.26,4.43a4.27,4.27,0,1,1-8.53,0Zm1.62,0c0,2,1,3.13,2.65,3.13S555,9.73,555,7.81s-1-3.14-2.62-3.14S549.7,5.85,549.7,7.77Z"/><path d="M564,1.32a11.73,11.73,0,0,0-.11,1.77V3.6h.68a9.6,9.6,0,0,0,1.53-.09V5a9.2,9.2,0,0,0-1.5-.09h-.71V9.78c0,.75.23,1,.93,1a2.13,2.13,0,0,0,1.17-.35l.32,1.41a4.34,4.34,0,0,1-1.82.35,2.51,2.51,0,0,1-1.68-.48,2,2,0,0,1-.52-1.61V4.93h-.59a9.48,9.48,0,0,0-1.33.09V3.51a7.27,7.27,0,0,0,1.35.09h.57V3.09a15.85,15.85,0,0,0-.11-1.77Z"/><path d="M570.1,7.8c0-2.72,1.66-4.44,4.27-4.44s4.26,1.72,4.26,4.43a4.27,4.27,0,1,1-8.53,0Zm1.62,0c0,2,1,3.13,2.65,3.13S577,9.73,577,7.81s-1-3.14-2.62-3.14S571.72,5.85,571.72,7.77Z"/><path d="M584.56,9.42a1.5,1.5,0,0,0,.51,1,2.19,2.19,0,0,0,1.57.5c1.17,0,1.94-.5,1.94-1.25a1,1,0,0,0-.42-.84,4.3,4.3,0,0,0-1.65-.51,6.76,6.76,0,0,1-2.19-.7,2,2,0,0,1-1.11-1.83,2.18,2.18,0,0,1,.67-1.56,3.7,3.7,0,0,1,2.63-.85,3.8,3.8,0,0,1,2.59.8,2.67,2.67,0,0,1,.81,1.44l-1.66.23a1.16,1.16,0,0,0-.32-.73,1.9,1.9,0,0,0-1.45-.53c-1,0-1.68.48-1.68,1.17a.88.88,0,0,0,.48.76,5.19,5.19,0,0,0,1.56.47,5.6,5.6,0,0,1,2.64,1,2.1,2.1,0,0,1,.72,1.7,2.24,2.24,0,0,1-.71,1.6,4.11,4.11,0,0,1-2.92.93,3.8,3.8,0,0,1-3.2-1.26,3.28,3.28,0,0,1-.54-1.29Z"/><path d="M594.79,12a11.25,11.25,0,0,0,.12-1.85v-8A12.13,12.13,0,0,0,594.8.27h1.8a13.56,13.56,0,0,0-.1,1.86V4.3a5,5,0,0,1,0,.72,3.54,3.54,0,0,1,3.11-1.57,2.68,2.68,0,0,1,2.92,2.93v3.77a12.16,12.16,0,0,0,.11,1.85h-1.85a10.72,10.72,0,0,0,.12-1.85V6.73a2,2,0,0,0-.39-1.39,1.54,1.54,0,0,0-1.21-.5c-1.17,0-2.18.84-2.76,2.34v3a15.53,15.53,0,0,0,.1,1.85Z"/><path d="M607.18,7.8c0-2.72,1.66-4.44,4.27-4.44s4.26,1.72,4.26,4.43a4.27,4.27,0,1,1-8.53,0Zm1.62,0c0,2,1,3.13,2.65,3.13s2.64-1.17,2.64-3.09-1-3.14-2.62-3.14S608.8,5.85,608.8,7.77Z"/><path d="M620.33,15a13.68,13.68,0,0,0,.11-1.86V5.49a12.91,12.91,0,0,0-.11-1.89H622v.66a3.92,3.92,0,0,1,0,.54A3.57,3.57,0,0,1,625,3.42a3.67,3.67,0,0,1,2.74,1A4.59,4.59,0,0,1,629,7.77c0,2.67-1.53,4.35-4,4.35a4.19,4.19,0,0,1-2.27-.63,3.81,3.81,0,0,1-.76-.69,9,9,0,0,1,0,1v1.29a12.8,12.8,0,0,0,.11,1.87Zm7-7.32c0-1.82-.93-2.9-2.49-2.9a2.77,2.77,0,0,0-2.76,3,3.27,3.27,0,0,0,.79,2.2,2.84,2.84,0,0,0,2,.8C626.39,10.77,627.31,9.61,627.31,7.69Z"/></g></g></svg>