<svg xmlns="http://www.w3.org/2000/svg" viewBox="0 0 297.94 180.76"><defs><style>.cls-1,.cls-2{stroke:#000;stroke-miterlimit:10;stroke-width:3px;}.cls-2{fill:none;}</style></defs><g id="レイヤー_2" data-name="レイヤー 2"><g id="レイヤー_1-2" data-name="レイヤー 1"><polygon points="147.15 136.74 147.15 85.81 140.06 85.81 140.06 170.85 158.96 170.85 158.96 85.81 151.88 85.81 151.88 136.74 147.15 136.74"/><path class="cls-1" d="M168.41,70.19v93.7c-6.15,4.51-12.72,7-19.54,7a32.2,32.2,0,0,1-18.25-6V70.19h16.53V65.87h-26V173.2a65,65,0,0,0,56.69-.91V65.87h-26v4.32Z"/><path class="cls-2" d="M130.62,164.8a32.2,32.2,0,0,0,18.25,6c6.82,0,13.39-2.45,19.54-7V70.19H151.88V85.81h-4.73V70.19H130.62Z"/><polygon points="41.83 44.4 31.84 11.83 21.9 44.4 15.29 44.4 2.04 2.3 8.55 2.3 18.59 35.07 28.58 2.3 35.15 2.3 45.15 35.07 55.18 2.3 61.69 2.3 48.44 44.4 41.83 44.4"/><path d="M59.64,3.8,47.34,42.9h-4.4L31.84,6.7l-11,36.2h-4.4L4.09,3.8H7.44L18.59,40.2,29.69,3.8H34l11.1,36.4L56.29,3.8h3.35m4.09-3H54.07l-.65,2.12-8.27,27-8.24-27L36.26.8H27.47l-.65,2.12-8.24,27-8.27-27L9.66.8H0L1.23,4.7l12.3,39.1.66,2.1H23l.65-2.12L31.85,17l8.22,26.83.65,2.12h8.82l.66-2.1L62.5,4.7,63.73.8Z"/><path d="M108.49,45.2a21.34,21.34,0,0,1-21.8-21.85A21.34,21.34,0,0,1,108.49,1.5c12.4,0,21.75,9.39,21.75,21.85S120.89,45.2,108.49,45.2Zm0-37.75c-8.86,0-15.55,6.84-15.55,15.9s6.69,15.9,15.55,15.9A15.54,15.54,0,0,0,124,23.35,15.54,15.54,0,0,0,108.49,7.45Z"/><path d="M108.49,3c11.45,0,20.25,8.55,20.25,20.35S120,43.7,108.49,43.7s-20.3-8.45-20.3-20.35S97.09,3,108.49,3m0,37.75c9.7,0,17-7.7,17-17.4S118.14,6,108.49,6s-17,7.6-17,17.4,7.4,17.4,17,17.4m0-40.75c-13.28,0-23.3,10-23.3,23.35s10,23.35,23.3,23.35,23.25-10,23.25-23.35S121.75,0,108.49,0Zm0,37.75c-8,0-14-6.19-14-14.4s6-14.4,14-14.4a14.06,14.06,0,0,1,14,14.4c0,8.21-6,14.4-14,14.4Z"/><path d="M181.3,44.4,167.75,26.55H165V44.4h-6.25V2.3h12.85c8.17,0,13.25,4.64,13.25,12.1,0,5-2.67,10.48-9.94,11.85l14,18.15ZM170.14,20.65c4.2,0,8.5-.74,8.5-6.2,0-5.72-4.39-6.2-8.5-6.2H165v12.4Z"/><path d="M171.64,3.8c7.7,0,11.75,4.4,11.75,10.6,0,4.7-2.65,10.3-11.25,10.65L185.89,42.9H182L168.49,25.05h-5V42.9h-3.25V3.8h11.35m-8.1,18.35h6.6c2.55,0,10,0,10-7.7s-6.95-7.7-10-7.7h-6.6v15.4M171.64.8H157.29V45.9h9.25V28.05H167l12.65,16.67.9,1.18H192l-3.72-4.83L177.52,27.12a13,13,0,0,0,5.75-3.81,13.69,13.69,0,0,0,3.12-8.91c0-8.26-5.79-13.6-14.75-13.6Zm-5.1,9h3.6c5.3,0,7,1.14,7,4.7,0,2.9-1.17,4.7-7,4.7h-3.6V9.75Z"/><polygon points="238.04 44.4 220.59 25.71 220.59 44.4 214.34 44.4 214.34 2.3 220.59 2.3 220.59 17.31 236.39 2.3 245.02 2.3 224.71 21.46 246.48 44.4 238.04 44.4"/><path d="M241.24,3.8,222.59,21.4,243,42.9h-4.3l-19.6-21v21h-3.25V3.8h3.25v17L237,3.8h4.25m7.55-3h-13l-.87.82L222.09,13.81V.8h-9.25V45.9h9.25V29.51L236.5,45l.89.95H250l-4.8-5.06L226.84,21.52,243.3,6,248.79.8Z"/><path d="M281.59,45.2a21.79,21.79,0,0,1-11.23-3.06l-1-.63,2-5.82,1.6,1a15.36,15.36,0,0,0,8.56,2.57c2,0,8.65-.47,8.65-6.55,0-4.27-2.72-5.43-7.52-7.12S271,21.52,271,13.6s6.56-12.1,13-12.1a19.77,19.77,0,0,1,9.12,2.26l1.11.55-1.7,6.11-1.68-1a13.08,13.08,0,0,0-6.9-2c-4.6,0-6.7,3.14-6.7,6.05,0,3.41,2.16,4.53,7.46,6.44,4.92,1.76,11.64,4.17,11.64,12.66C296.44,40.14,290.47,45.2,281.59,45.2Z"/><path d="M284.09,3a18.38,18.38,0,0,1,8.45,2.1l-.85,3.05A14.45,14.45,0,0,0,284,6c-5.45,0-8.2,3.8-8.2,7.55,0,4.65,3.45,6.05,8.45,7.85,4.75,1.7,10.65,3.8,10.65,11.25,0,7.25-6.05,11.1-13.35,11.1a20.14,20.14,0,0,1-10.45-2.85l1-2.9a16.92,16.92,0,0,0,9.35,2.8c4.65,0,10.15-2,10.15-8,0-5.55-4.15-7-8.55-8.55-4.85-1.7-10.55-3.75-10.55-10.55,0-5.7,4.25-10.6,11.55-10.6m0-3c-9.55,0-14.55,6.84-14.55,13.6,0,9,7.56,11.63,12.56,13.38,4.85,1.71,6.54,2.59,6.54,5.72,0,4.56-5,5-7.15,5a13.9,13.9,0,0,1-7.77-2.35l-3.19-2L269.3,37l-1,2.9-.79,2.3,2.08,1.25a23.18,23.18,0,0,0,12,3.28c9.63,0,16.35-5.8,16.35-14.1,0-9.55-7.9-12.38-12.62-14.07-5.45-2-6.48-2.76-6.48-5S280.45,9,284,9a11.51,11.51,0,0,1,6.14,1.79l3.35,1.93L294.58,9l.85-3.06.66-2.38-2.21-1.1A21.21,21.21,0,0,0,284.09,0Z"/></g></g></svg>