<svg xmlns="http://www.w3.org/2000/svg" viewBox="0 0 11.86 66.78"><defs><style>.cls-1{fill:#888;}</style></defs><g id="レイヤー_2" data-name="レイヤー 2"><g id="レイヤー_1-2" data-name="レイヤー 1"><path class="cls-1" d="M11.62,57.49a11,11,0,0,0-1.53.47l-1.93.78V64l1.93.78a8.54,8.54,0,0,0,1.53.47v1.56A9.15,9.15,0,0,0,9.9,66L1.62,62.61a7.42,7.42,0,0,0-1.4-.48V60.61a7.64,7.64,0,0,0,1.4-.51L9.9,56.74A14.94,14.94,0,0,0,11.62,56ZM2.17,61l-1,.33.5.17.46.16,5,1.92V59.1Z"/><path class="cls-1" d="M11.62,49.93c0,.66,0,1.13.05,1.65a9.69,9.69,0,0,0-1.86-.13h-8a8.71,8.71,0,0,0-1.59.12c0-.47,0-.77,0-1.64V46.74c0-2.18,1-3.39,2.76-3.39a2.54,2.54,0,0,1,2,.81,2.87,2.87,0,0,1,.6,1.18A2.69,2.69,0,0,1,8.47,43c2,0,3.15,1.32,3.15,3.61ZM5.11,46.75c0-1.39-.73-2.22-2-2.22s-1.88.75-1.88,2.24v3.52H5.11Zm5.49,3.54V46.68c0-1.64-.78-2.51-2.22-2.51S6.13,45,6.13,46.71v3.58Z"/><path class="cls-1" d="M5.92,27.91c3.62,0,5.93,2,5.93,5.19s-2.31,5.18-5.93,5.18S0,36.24,0,33.09,2.31,27.91,5.92,27.91Zm3.84,2.57a5.34,5.34,0,0,0-3.84-1.34,5.27,5.27,0,0,0-3.84,1.32,3.68,3.68,0,0,0-1,2.63c0,2.4,1.92,4,4.86,4s4.87-1.59,4.87-4A3.52,3.52,0,0,0,9.76,30.48Z"/><path class="cls-1" d="M.22,13.66a9.14,9.14,0,0,0,1.7.12H7.48a4.5,4.5,0,0,1,3.2,1.16,4.7,4.7,0,0,1,1.18,3.4,4.61,4.61,0,0,1-1.21,3.42,4.42,4.42,0,0,1-3.17,1.11H2A9.35,9.35,0,0,0,.22,23V21.58A8.81,8.81,0,0,0,2,21.7H7.44a3.08,3.08,0,0,0,3.39-3.37,3.35,3.35,0,0,0-1-2.63A3.72,3.72,0,0,0,7.44,15H2a9.49,9.49,0,0,0-1.73.12Z"/><path class="cls-1" d="M9.93,4.09A9.23,9.23,0,0,0,11.62,4V5.38a8.89,8.89,0,0,0-1.69-.12H1.27V7.6a10.21,10.21,0,0,0,.11,1.73H.12a11.37,11.37,0,0,0,.1-1.71V1.77A11.28,11.28,0,0,0,.12,0H1.38a10.2,10.2,0,0,0-.11,1.77V4.09Z"/></g></g></svg>