<svg xmlns="http://www.w3.org/2000/svg" viewBox="0 0 170.85 125.89"><g id="レイヤー_2" data-name="レイヤー 2"><g id="レイヤー_1-2" data-name="レイヤー 1"><g id="レイヤー_2-2" data-name="レイヤー 2"><g id="レイヤー_1-2-2" data-name="レイヤー 1-2"><polygon points="142.14 63.98 111.59 100.21 111.59 125.89 130.01 125.89 170.85 74.3 170.85 53.66 128.64 0 111.59 0 111.59 27.48 142.14 63.98"/><polygon points="59.26 125.89 59.26 100.21 28.69 63.98 59.26 27.48 59.26 0 42.19 0 0 53.66 0 74.3 40.84 125.89 59.26 125.89"/><rect x="91.27" y="102.62" width="11.69" height="23.26"/><rect x="67.89" y="102.62" width="11.69" height="23.26"/><polygon points="97.1 23.26 97.1 0 83.8 0 73.74 0 73.74 23.26 97.1 23.26"/></g></g></g></g></svg>