<svg xmlns="http://www.w3.org/2000/svg" viewBox="0 0 583.42 205.75"><g id="レイヤー_2" data-name="レイヤー 2"><g id="レイヤー_1-2" data-name="レイヤー 1"><g id="レイヤー_2-2" data-name="レイヤー 2"><g id="レイヤー_1-2-2" data-name="レイヤー 1-2"><polygon points="355 71.4 320.92 111.83 320.92 140.49 341.47 140.49 387.04 82.92 387.04 59.89 339.94 0 320.92 0 320.92 30.67 355 71.4"/><polygon points="262.51 140.49 262.51 111.83 228.4 71.4 262.51 30.67 262.51 0 243.46 0 196.38 59.89 196.38 82.92 241.96 140.49 262.51 140.49"/><rect x="298.24" y="114.53" width="13.05" height="25.96"/><rect x="272.14" y="114.53" width="13.05" height="25.96"/><polygon points="304.75 25.96 304.75 0 289.9 0 278.68 0 278.68 25.96 304.75 25.96"/></g></g><polygon points="23.55 204.13 5.53 178.01 5.53 204.13 1 204.13 1 171.74 6.53 171.74 24.55 197.86 24.55 171.74 29.08 171.74 29.08 204.13 23.55 204.13"/><path d="M28.08,172.74v30.39h-4L4.53,174.8v28.33H2V172.74H6l19.55,28.33V172.74h2.53m2-2H23.55v23.91l-15.9-23-.6-.87H0v34.39H6.53V181.22l15.9,23.05.59.86h7.06V170.74Z"/><path d="M56.66,204.75a16.82,16.82,0,0,1,0-33.63,16.82,16.82,0,0,1,0,33.63Zm0-29.34a12.53,12.53,0,1,0,12.22,12.53A12.12,12.12,0,0,0,56.66,175.41Z"/><path d="M56.66,172.12a15.82,15.82,0,0,1,0,31.63,15.82,15.82,0,0,1,0-31.63m0,29.34a13.53,13.53,0,1,0-13.25-13.52,13.17,13.17,0,0,0,13.25,13.52m0-31.34a17.82,17.82,0,0,0,0,35.63,17.82,17.82,0,0,0,0-35.63Zm0,29.34a11.53,11.53,0,0,1,0-23.05,11.25,11.25,0,0,1,11.21,11.53c0,6.57-4.82,11.52-11.21,11.52Z"/><path d="M101,204.75c-12.39,0-17.94-8.48-17.94-16.89,0-8.06,5.52-16.74,17.63-16.74a21.72,21.72,0,0,1,10.76,2.72l.78.4-1.56,4.33-1-.62a16.6,16.6,0,0,0-9-2.54c-7.8,0-13,5-13,12.49,0,9.27,7.31,12.56,13.57,12.56a21.56,21.56,0,0,0,6.93-1.08v-8.81H99.36v-4.29h13.27v16.05l-.61.25A27.37,27.37,0,0,1,101,204.75Z"/><path d="M100.71,172.12a20.8,20.8,0,0,1,10.3,2.6l-.85,2.37a17.43,17.43,0,0,0-9.52-2.68c-8.9,0-14,6.07-14,13.49,0,7,4.54,13.56,14.57,13.56a22.88,22.88,0,0,0,7.93-1.36V189.57h-8.75v-2.29h11.27v14.38A26.6,26.6,0,0,1,101,203.75c-12.66,0-16.94-8.9-16.94-15.89,0-8.2,5.75-15.74,16.63-15.74m0-2c-12.8,0-18.63,9.2-18.63,17.74,0,8.91,5.86,17.89,18.94,17.89a28.62,28.62,0,0,0,11.38-2.24l1.23-.52V185.28H98.36v6.29h8.75v7.07a20.47,20.47,0,0,1-5.93.82c-9.27,0-12.57-6-12.57-11.56,0-7.94,6-11.49,12-11.49a15.3,15.3,0,0,1,8.46,2.38l2.08,1.24.86-2.26.85-2.37.6-1.65-1.56-.8a22.66,22.66,0,0,0-11.22-2.83Z"/><path d="M138.05,204.75c-13.6,0-13.6-10.69-13.6-14.71v-18.3H129v18.18c0,5.33.7,10.54,9.07,10.54s9.1-5.21,9.1-10.54V171.74h4.53V190C151.68,194,151.68,204.75,138.05,204.75Z"/><path d="M150.68,172.74V190c0,4.54-.28,13.75-12.63,13.75s-12.6-9.21-12.6-13.71v-17.3H128v17.18c0,4.62.31,11.54,10.07,11.54s10.1-7,10.1-11.54V172.74h2.53m2-2h-6.53v19.18c0,5.22-.61,9.54-8.1,9.54s-8.07-4.32-8.07-9.54V170.74h-6.53V190c0,3.88,0,15.71,14.6,15.71s14.63-11.86,14.63-15.75V170.74Z"/><path d="M180,204.75c-10.18,0-17.29-6.9-17.29-16.77s7.18-16.86,17.06-16.86a17.34,17.34,0,0,1,9.38,2.6l.84.5-1.72,4.24-1-.69a12.09,12.09,0,0,0-7.48-2.36c-7.38,0-12.53,5.15-12.53,12.53,0,6.23,4,12.52,12.91,12.52a13.56,13.56,0,0,0,8.2-2.4l1.55-1v5.26l-.57.27A20.14,20.14,0,0,1,180,204.75Z"/><path d="M179.77,172.12a16.32,16.32,0,0,1,9,2.53l-.93,2.29a13.07,13.07,0,0,0-8-2.53c-8.2,0-13.53,6-13.53,13.53,0,6.49,4.24,13.52,13.91,13.52a14.63,14.63,0,0,0,8.75-2.56v2.79a19.2,19.2,0,0,1-8.9,2.06c-10.42,0-16.29-7.26-16.29-15.77,0-8.75,6.18-15.86,16.06-15.86m0-2c-10.46,0-18.06,7.51-18.06,17.86s7.52,17.77,18.29,17.77a21.26,21.26,0,0,0,9.76-2.25l1.13-.55v-7.73l-3.09,2a12.67,12.67,0,0,1-7.66,2.24c-5.93,0-11.91-3.56-11.91-11.52,0-6.79,4.74-11.53,11.53-11.53a11.15,11.15,0,0,1,6.92,2.19l2,1.37.93-2.28.94-2.29.65-1.6-1.49-.88-.11-.06a18.12,18.12,0,0,0-9.88-2.74Z"/><polygon points="220.29 204.13 220.29 189.09 205.38 189.09 205.38 204.13 200.82 204.13 200.82 171.74 205.38 171.74 205.38 184.8 220.29 184.8 220.29 171.74 224.85 171.74 224.85 204.13 220.29 204.13"/><path d="M223.85,172.74v30.39h-2.56v-15H204.38v15h-2.56V172.74h2.56V185.8h16.91V172.74h2.56m2-2h-6.56V183.8H206.38V170.74h-6.56v34.39h6.56v-15h12.91v15h6.56V170.74Z"/><rect x="237.91" y="171.74" width="4.68" height="32.39"/><path d="M241.59,172.74v30.39h-2.68V172.74h2.68m2-2h-6.68v34.39h6.68V170.74Z"/><polygon points="331.31 204.13 331.31 190.85 320.11 171.74 325.26 171.74 333.55 186.06 341.88 171.74 347.03 171.74 335.83 190.85 335.83 204.13 331.31 204.13"/><path d="M345.29,172.74h0m0,0-10.46,17.84v12.55h-2.52V190.58l-10.46-17.84h2.84l8.86,15.31,8.9-15.31h2.84m3.49-2H341.3l-.58,1-7.17,12.33-7.13-12.33-.58-1h-7.48l1.77,3,10.18,17.37v14h6.52v-14L347,173.75l1.77-3Zm-3.49,0h0Zm0,4Z"/><path d="M379,204.13l-3.73-9.56h-13.2l-3.73,9.56h-4.88l12.84-32.39h4.78l12.84,32.39Zm-5.36-13.81L368.7,177.7l-4.95,12.62Z"/><path d="M370.41,172.74l12,30.39H379.7L376,193.57H361.39l-3.73,9.56h-2.72L367,172.74h3.42m-8.12,18.58h12.82L368.7,175l-6.41,16.36m9.48-20.58h-6.14l-.5,1.27L353.08,202.4,352,205.13h7l.5-1.27,3.23-8.29H374.6l3.23,8.29.5,1.27h7.07l-1.08-2.73L372.27,172l-.5-1.27Zm-6.55,18.58,3.48-8.88,3.48,8.88Z"/><path d="M400.43,204.75a16.75,16.75,0,0,1-8.64-2.35l-.69-.42,1.45-4.2,1.06.65a12.1,12.1,0,0,0,6.74,2c1.15,0,6.89-.25,6.89-5.26,0-3.42-2.26-4.39-5.95-5.69s-8.89-3.12-8.89-9.15c0-4.59,3.43-9.24,10-9.24a15.14,15.14,0,0,1,7,1.74l.74.37-1.23,4.4-1.11-.64a10.35,10.35,0,0,0-5.45-1.58c-3.7,0-5.38,2.53-5.38,4.87,0,2.76,1.71,3.65,5.91,5.16,3.78,1.35,8.94,3.2,8.94,9.69C411.81,200.88,407.24,204.75,400.43,204.75Z"/><path d="M402.38,172.12a14.25,14.25,0,0,1,6.56,1.63l-.66,2.37a11.24,11.24,0,0,0-5.94-1.71c-4.24,0-6.38,3-6.38,5.87,0,3.62,2.69,4.7,6.57,6.1,3.69,1.32,8.28,3,8.28,8.75,0,5.63-4.7,8.62-10.38,8.62a15.63,15.63,0,0,1-8.12-2.21l.78-2.26a13,13,0,0,0,7.26,2.18c3.62,0,7.89-1.55,7.89-6.26,0-4.31-3.22-5.44-6.64-6.64-3.77-1.32-8.2-2.92-8.2-8.2,0-4.43,3.3-8.24,9-8.24m0-2c-6.36,0-11,4.31-11,10.24,0,6.74,5.74,8.76,9.54,10.09s5.3,2.12,5.3,4.75c0,4-4.5,4.26-5.89,4.26a11.11,11.11,0,0,1-6.21-1.88L392,196.27l-.81,2.36-.78,2.26-.53,1.53,1.39.83a17.66,17.66,0,0,0,9.15,2.5c7.41,0,12.38-4.27,12.38-10.62,0-7.19-5.77-9.26-9.59-10.62-4.14-1.5-5.26-2.19-5.26-4.23s1.35-3.87,4.38-3.87a9.19,9.19,0,0,1,4.93,1.44l2.23,1.28.71-2.47.66-2.37.44-1.59-1.47-.74a16.28,16.28,0,0,0-7.46-1.84Z"/><path d="M436.63,204.75C423,204.75,423,194.06,423,190v-18.3h4.52v18.18c0,5.33.7,10.54,9.07,10.54s9.1-5.21,9.1-10.54V171.74h4.53V190C450.26,194,450.26,204.75,436.63,204.75Z"/><path d="M449.26,172.74V190c0,4.54-.27,13.75-12.63,13.75S424,194.54,424,190v-17.3h2.52v17.18c0,4.62.31,11.54,10.07,11.54s10.1-7,10.1-11.54V172.74h2.53m2-2h-6.53v19.18c0,5.22-.61,9.54-8.1,9.54s-8.07-4.32-8.07-9.54V170.74H422V190c0,3.88,0,15.71,14.59,15.71s14.63-11.86,14.63-15.75V170.74Z"/><polygon points="481.94 204.13 481.94 189.09 467.03 189.09 467.03 204.13 462.47 204.13 462.47 171.74 467.03 171.74 467.03 184.8 481.94 184.8 481.94 171.74 486.5 171.74 486.5 204.13 481.94 204.13"/><path d="M485.5,172.74v30.39h-2.56v-15H466v15h-2.56V172.74H466V185.8h16.91V172.74h2.56m2-2h-6.56V183.8H468V170.74h-6.56v34.39H468v-15h12.91v15h6.56V170.74Z"/><rect x="499.56" y="171.74" width="4.68" height="32.39"/><path d="M503.24,172.74v30.39h-2.68V172.74h2.68m2-2h-6.68v34.39h6.68V170.74Z"/><polygon points="525.37 204.13 525.37 176.03 514.76 176.03 514.76 171.74 540.55 171.74 540.55 176.03 529.94 176.03 529.94 204.13 525.37 204.13"/><path d="M539.55,172.74V175H528.94v28.1h-2.57V175H515.76v-2.29h23.79m2-2H513.76V177h10.61v28.1h6.57V177h10.61v-6.29Z"/><path d="M565.68,204.75a16.82,16.82,0,1,1,16.74-16.81A16.42,16.42,0,0,1,565.68,204.75Zm0-29.34a12.53,12.53,0,1,0,12.21,12.53A12.12,12.12,0,0,0,565.68,175.41Z"/><path d="M565.68,172.12a15.82,15.82,0,1,1-15.77,15.82,15.39,15.39,0,0,1,15.77-15.82m0,29.34a13.53,13.53,0,1,0-13.25-13.52,13.17,13.17,0,0,0,13.25,13.52m0-31.34a17.82,17.82,0,1,0,17.74,17.82,17.4,17.4,0,0,0-17.74-17.82Zm0,29.34a11.53,11.53,0,0,1,0-23.05,11.25,11.25,0,0,1,11.21,11.53c0,6.57-4.82,11.52-11.21,11.52Z"/></g></g></svg>