<svg xmlns="http://www.w3.org/2000/svg" viewBox="0 0 153.36 55.8"><defs><style>.cls-1{fill:none;stroke:#000;stroke-miterlimit:10;stroke-width:3px;}</style></defs><g id="レイヤー_2" data-name="レイヤー 2"><g id="レイヤー_1-2" data-name="レイヤー 1"><path class="cls-1" d="M90.85,40.08A14.17,14.17,0,1,0,73.84,54V40.08h5.67V54A14.17,14.17,0,0,0,90.85,40.08Z"/><path d="M1.08,8.19a2.54,2.54,0,0,0,.48,1.54,3.12,3.12,0,0,0,2.59,1.08c1.86,0,3-.88,3-2.37a1.76,1.76,0,0,0-.9-1.66,7,7,0,0,0-2.45-.72,7.51,7.51,0,0,1-2-.63A2.55,2.55,0,0,1,.34,3.06c0-1.83,1.47-3,3.74-3A3.84,3.84,0,0,1,7.29,1.38a3.23,3.23,0,0,1,.63,1.54l-1,.17A2.29,2.29,0,0,0,6.34,1.8,2.84,2.84,0,0,0,4.05.89C2.43.89,1.3,1.77,1.3,3A1.82,1.82,0,0,0,2.67,4.81a8.39,8.39,0,0,0,2.16.54c2.34.5,3.28,1.38,3.28,3.08,0,2.05-1.44,3.24-3.93,3.24A4.12,4.12,0,0,1,.66,10.23,3.75,3.75,0,0,1,0,8.34Z"/><path d="M21.28,3.31A3.49,3.49,0,0,0,20.56,2,3.45,3.45,0,0,0,17.86.85c-2.5,0-4.09,1.92-4.09,5s1.6,5,4.09,5a3.52,3.52,0,0,0,2.9-1.31A3.17,3.17,0,0,0,21.4,8l1,.27a5.58,5.58,0,0,1-.75,1.65,4.59,4.59,0,0,1-3.86,1.77,4.64,4.64,0,0,1-3.4-1.29,6.27,6.27,0,0,1-1.62-4.52,6.34,6.34,0,0,1,1.66-4.59A4.59,4.59,0,0,1,17.83,0a4.56,4.56,0,0,1,3.29,1.19A4.9,4.9,0,0,1,22.26,3Z"/><path d="M35,11.47a9.5,9.5,0,0,0-.9-2.59c-.9-2.07-1.5-2.65-2.7-2.65H28.42V9.85a8.37,8.37,0,0,0,.12,1.62H27.36a8.43,8.43,0,0,0,.12-1.62v-8A10.39,10.39,0,0,0,27.36.17c.54,0,.91,0,1.57,0h3.23c2.14,0,3.31,1,3.31,2.82a2.72,2.72,0,0,1-.93,2.22,3.4,3.4,0,0,1-1.6.71c.58.17,1,.59,1.51,1.64.44.84.75,1.53,1.19,2.51a11.46,11.46,0,0,0,.67,1.36Zm-2.84-6.1a2.51,2.51,0,0,0,1.8-.68,2.08,2.08,0,0,0,.59-1.56c0-1.34-.8-2.07-2.28-2.07h-3.8V5.37Z"/><path d="M50.82,5.85c0,3.57-2,5.83-5.07,5.83s-5.07-2.26-5.07-5.83a6.23,6.23,0,0,1,1.6-4.5A4.83,4.83,0,0,1,45.75,0C48.85,0,50.82,2.28,50.82,5.85ZM48.46,9.76a5.52,5.52,0,0,0,1.37-3.93,5.34,5.34,0,0,0-1.35-3.89A3.77,3.77,0,0,0,45.76.85c-2.47,0-4.09,2-4.09,5s1.65,5,4.11,5A3.71,3.71,0,0,0,48.46,9.76Z"/><path d="M57.39,11.47c-.68,0-1,0-1.58,0a10,10,0,0,0,.12-1.74V1.86A8.84,8.84,0,0,0,55.81.21H57a8.7,8.7,0,0,0-.12,1.65V10.6h4.86a11.79,11.79,0,0,0,1.63-.1v1.08a8.61,8.61,0,0,0-1.63-.11Z"/><path d="M69.25,11.47c-.67,0-1,0-1.57,0a10,10,0,0,0,.12-1.74V1.86A8.84,8.84,0,0,0,67.68.21h1.18a8.7,8.7,0,0,0-.12,1.65V10.6H73.6a11.94,11.94,0,0,0,1.64-.1v1.08a8.8,8.8,0,0,0-1.64-.11Z"/><path d="M97.66,1.81A10.39,10.39,0,0,0,97.54.17c.54,0,.89,0,1.58,0h2.47a5.06,5.06,0,0,1,3.68,1.33,5.74,5.74,0,0,1,1.47,4.22,6.07,6.07,0,0,1-1.56,4.38,5,5,0,0,1-3.57,1.33H99.12c-.69,0-1.05,0-1.58,0a10.06,10.06,0,0,0,.12-1.73Zm3.93,8.81c2.61,0,4.17-1.83,4.17-4.89s-1.48-4.67-4.09-4.67H98.61v9.56Z"/><path d="M121.47,5.85c0,3.57-2,5.83-5.07,5.83s-5.07-2.26-5.07-5.83a6.23,6.23,0,0,1,1.6-4.5A4.83,4.83,0,0,1,116.4,0C119.5,0,121.47,2.28,121.47,5.85Zm-2.36,3.91a5.52,5.52,0,0,0,1.37-3.93,5.34,5.34,0,0,0-1.35-3.89A3.77,3.77,0,0,0,116.41.85c-2.47,0-4.09,2-4.09,5s1.65,5,4.11,5A3.71,3.71,0,0,0,119.11,9.76Z"/><path d="M135.63,11.47a11,11,0,0,0-.38-1.42l-2.08-6.7a16.78,16.78,0,0,1-.45-1.68c-.17.68-.35,1.33-.45,1.68l-2.07,6.7a11.77,11.77,0,0,0-.38,1.42h-.94a12.25,12.25,0,0,0-.41-1.47L126.1,1.89a10.27,10.27,0,0,0-.61-1.68h1.29a7.29,7.29,0,0,0,.28,1.56l1.88,6.72c.12.43.22.88.4,1.68.17-.68.33-1.26.47-1.7l2.1-6.79a10.14,10.14,0,0,0,.34-1.47h.93a11.41,11.41,0,0,0,.36,1.47l2.1,6.78c.09.31.18.63.47,1.71.3-1.26.37-1.62.4-1.71l1.88-6.69a8.36,8.36,0,0,0,.28-1.56H140a11,11,0,0,0-.6,1.68L137,10a12,12,0,0,0-.39,1.47Z"/><path d="M151.93,11.47a10.37,10.37,0,0,0-.76-1.29l-4.82-7.24c-.31-.46-.67-1.06-1-1.68.06,1.16.08,1.84.08,2.31V9.81a8.55,8.55,0,0,0,.12,1.66h-1.17a8.61,8.61,0,0,0,.12-1.66v-8a8.7,8.7,0,0,0-.12-1.62h1.36a6,6,0,0,0,.74,1.29l4.83,7.24c.31.47.51.77,1.09,1.76-.06-1.13-.09-2-.09-2.31V1.85a8.72,8.72,0,0,0-.12-1.64h1.19a8.46,8.46,0,0,0-.12,1.64v8a7.86,7.86,0,0,0,.12,1.62Z"/></g></g></svg>