<svg xmlns="http://www.w3.org/2000/svg" viewBox="0 0 11.85 54.49"><defs><style>.cls-1{fill:#888;}</style></defs><g id="レイヤー_2" data-name="レイヤー 2"><g id="レイヤー_1-2" data-name="レイヤー 1"><path class="cls-1" d="M.22,45.13a9.23,9.23,0,0,0,1.66.12H9.94a9.32,9.32,0,0,0,1.68-.12v1.41a10.17,10.17,0,0,0-1.68-.12H6.15V53.2H9.94a9,9,0,0,0,1.68-.12v1.41a8.84,8.84,0,0,0-1.68-.12h-8a9.16,9.16,0,0,0-1.69.12V53.08a9.16,9.16,0,0,0,1.66.12h3.2V46.42H1.91a10.21,10.21,0,0,0-1.69.12Z"/><path class="cls-1" d="M5.92,29.83c3.62,0,5.93,2,5.93,5.19S9.54,40.2,5.92,40.2,0,38.16,0,35,2.31,29.83,5.92,29.83ZM9.76,32.4a5.34,5.34,0,0,0-3.84-1.34,5.31,5.31,0,0,0-3.84,1.32,3.69,3.69,0,0,0-1,2.63c0,2.4,1.92,4,4.86,4s4.87-1.59,4.87-4A3.54,3.54,0,0,0,9.76,32.4Z"/><path class="cls-1" d="M3.36,23.08a13.45,13.45,0,0,1-1.86.68c.64-.05,1.58-.11,1.93-.11H9.85a10.58,10.58,0,0,0,1.77-.11V24.9a9.89,9.89,0,0,0-1.77-.12H2a10.42,10.42,0,0,0-1.79.12V23.16a7.61,7.61,0,0,0,1.49-.49L10,19,1.71,15.27a8,8,0,0,0-1.49-.51V13A11.36,11.36,0,0,0,2,13.16H9.85A10.42,10.42,0,0,0,11.62,13V14.4a10,10,0,0,0-1.77-.12H3.34c-.42,0-1.22,0-1.84-.11a11.14,11.14,0,0,1,1.83.65l6.73,3.06a8.77,8.77,0,0,0,1.56.57v1.06a8,8,0,0,0-1.57.56Z"/><path class="cls-1" d="M11.73,0a9.22,9.22,0,0,0-.11,1.68v4.4c0,.71,0,1.13.05,1.64A10.35,10.35,0,0,0,9.88,7.6h-8a11.1,11.1,0,0,0-1.71.12c0-.52,0-.93,0-1.64V1.8A10.61,10.61,0,0,0,.12.12H1.38a10.08,10.08,0,0,0-.1,1.68V6.42H5.12V2.48A12.74,12.74,0,0,0,5,.79H6.27a11.08,11.08,0,0,0-.1,1.69V6.42h4.4V1.67A12,12,0,0,0,10.47,0Z"/></g></g></svg>