<svg xmlns="http://www.w3.org/2000/svg" viewBox="0 0 11.85 69.48"><defs><style>.cls-1{fill:#888;}</style></defs><g id="レイヤー_2" data-name="レイヤー 2"><g id="レイヤー_1-2" data-name="レイヤー 1"><path class="cls-1" d="M11.62,59.32c-.3.06-.84.2-1.44.39l-6.48,2A15,15,0,0,1,2,62.13a1.09,1.09,0,0,0,.25.06c.39.1,1.17.3,1.47.39l6.48,2a10.25,10.25,0,0,0,1.44.39v1.16a9.43,9.43,0,0,0-1.48.4L1.93,68.86a10,10,0,0,0-1.71.62V68a8.36,8.36,0,0,0,1.56-.28l6.51-1.77c.36-.11.78-.2,1.7-.41-.6-.15-1.31-.33-1.71-.45L1.69,63A10.14,10.14,0,0,0,.22,62.7V61.57a8.65,8.65,0,0,0,1.47-.36l6.57-2c.33-.1.56-.16,1.73-.46l-1.73-.4L1.78,56.58a10.12,10.12,0,0,0-1.56-.29v-1.5a10.94,10.94,0,0,0,1.71.59l8.21,2.39a12.77,12.77,0,0,0,1.48.38Z"/><path class="cls-1" d="M5.92,40.46c3.62,0,5.93,2,5.93,5.19s-2.31,5.17-5.93,5.17S0,48.78,0,45.63,2.31,40.46,5.92,40.46ZM9.76,43a5.38,5.38,0,0,0-3.84-1.33A5.27,5.27,0,0,0,2.08,43a3.68,3.68,0,0,0-1,2.63c0,2.4,1.92,4,4.86,4s4.87-1.59,4.87-4A3.52,3.52,0,0,0,9.76,43Z"/><path class="cls-1" d="M11.62,27.93a11.08,11.08,0,0,0-2.56.88c-2.06.88-2.64,1.46-2.64,2.66v2.78H9.93a8.92,8.92,0,0,0,1.69-.13v1.4a9,9,0,0,0-1.68-.12h-8a10.72,10.72,0,0,0-1.72.12c0-.52,0-1,0-1.64v-3.3c0-2.17,1-3.37,2.88-3.37a2.74,2.74,0,0,1,2.21.9,3.07,3.07,0,0,1,.75,1.62c.18-.61.58-1,1.65-1.53.7-.36,1.48-.72,2.52-1.18a15.25,15.25,0,0,0,1.39-.68ZM5.38,30.69A2.4,2.4,0,0,0,4.74,29a2,2,0,0,0-1.52-.57c-1.27,0-2,.75-2,2.17v3.65H5.38Z"/><path class="cls-1" d="M10,13.85a13.75,13.75,0,0,0,1.63-1.41v1.73a9.86,9.86,0,0,0-1.29.89L5.77,18.6,7.5,20.35H9.94a8.84,8.84,0,0,0,1.68-.12v1.4a9,9,0,0,0-1.68-.12h-8a9.54,9.54,0,0,0-1.68.12v-1.4a8.71,8.71,0,0,0,1.68.12H6.06L1.47,15.79a5.72,5.72,0,0,0-1.25-1V13l.38.39c.24.24.45.47.66.66l.51.5L5,17.77Z"/><path class="cls-1" d="M3.18,1.44A2.53,2.53,0,0,0,1.93,2a2.8,2.8,0,0,0-.87,2.23c0,1.54.83,2.62,2,2.62A1.77,1.77,0,0,0,4.8,5.5a11.8,11.8,0,0,0,.54-2.14C5.85,1,6.76,0,8.5,0c2.12,0,3.32,1.46,3.32,4a4.29,4.29,0,0,1-1.43,3.62,3.85,3.85,0,0,1-2,.7l-.16-1.3a2.31,2.31,0,0,0,1.48-.47,3,3,0,0,0,1-2.5c0-1.79-.84-2.87-2.24-2.87a1.72,1.72,0,0,0-1.6.87,7.46,7.46,0,0,0-.74,2.48,6.58,6.58,0,0,1-.69,2A2.55,2.55,0,0,1,3.13,8C1.24,8,0,6.48,0,4.15A4,4,0,0,1,1.41.84,3.55,3.55,0,0,1,3,.18Z"/></g></g></svg>